<?xml version="1.0" encoding="UTF-8" standalone="no"?>
<!DOCTYPE svg PUBLIC "-//W3C//DTD SVG 1.1//EN" "http://www.w3.org/Graphics/SVG/1.1/DTD/svg11.dtd">
<svg width="100%" height="100%" viewBox="0 0 3865 2789" version="1.1" xmlns="http://www.w3.org/2000/svg" xmlns:xlink="http://www.w3.org/1999/xlink" xml:space="preserve" xmlns:serif="http://www.serif.com/" style="fill-rule:evenodd;clip-rule:evenodd;stroke-linejoin:round;stroke-miterlimit:1.41421;">
    <g transform="matrix(1,0,0,1.40573,-33850.5,-6179.15)">
        <path d="M35782.7,5955.03L35782.7,5885.26" style="fill:white;"/>
    </g>
    <g transform="matrix(1,0,0,1.40573,-33850.5,-6179.15)">
        <rect x="35770.2" y="5885.26" width="25" height="69.77" style="fill:white;fill-rule:nonzero;"/>
    </g>
    <g transform="matrix(0.951057,-0.309017,0.434393,1.33692,-34349.2,5234.7)">
        <path d="M35782.7,5955.03L35782.7,5885.26" style="fill:white;"/>
    </g>
    <g transform="matrix(0.951057,-0.309017,0.434393,1.33692,-34349.2,5234.7)">
        <path d="M35786.9,5955.03L35778.6,5955.03L35778.6,5885.26L35786.9,5885.26C35786.9,5908.52 35786.9,5931.77 35786.9,5955.03Z" style="fill:white;fill-rule:nonzero;"/>
    </g>
    <g transform="matrix(0.809017,-0.587785,0.826265,1.13726,-31296.5,16244)">
        <path d="M35782.7,5955.03L35782.7,5885.26" style="fill:white;"/>
    </g>
    <g transform="matrix(0.809017,-0.587785,0.826265,1.13726,-31296.5,16244)">
        <path d="M35786.9,5955.03L35778.6,5955.03L35778.6,5885.26L35786.9,5885.26C35786.9,5908.51 35786.9,5931.77 35786.9,5955.03Z" style="fill:white;fill-rule:nonzero;"/>
    </g>
    <g transform="matrix(0.587785,-0.809017,1.13726,0.826265,-24991.1,25771.2)">
        <path d="M35782.7,5955.03L35782.7,5885.26" style="fill:white;"/>
    </g>
    <g transform="matrix(0.587785,-0.809017,1.13726,0.826265,-24991.1,25771.2)">
        <path d="M35786.9,5955.03L35778.6,5955.03L35778.6,5885.26L35786.9,5885.26C35786.9,5908.52 35786.9,5931.77 35786.9,5955.03Z" style="fill:white;fill-rule:nonzero;"/>
    </g>
    <g transform="matrix(0.309017,-0.951057,1.33692,0.434393,-16050.2,32883.6)">
        <path d="M35782.7,5955.03L35782.7,5885.26" style="fill:white;"/>
    </g>
    <g transform="matrix(0.309017,-0.951057,1.33692,0.434393,-16050.2,32883.6)">
        <path d="M35786.9,5955.03L35778.6,5955.03L35778.6,5885.26L35786.9,5885.26C35786.9,5908.51 35786.9,5931.77 35786.9,5955.03Z" style="fill:white;fill-rule:nonzero;"/>
    </g>
    <g transform="matrix(-0.587785,-0.809017,1.13726,-0.826265,17074.1,34331)">
        <path d="M35782.7,5955.03L35782.7,5885.26" style="fill:white;"/>
    </g>
    <g transform="matrix(-0.587785,-0.809017,1.13726,-0.826265,17074.1,34331)">
        <path d="M35778.6,5955.03L35778.6,5885.26L35786.9,5885.26L35786.9,5955.03C35784.1,5955.03 35781.3,5955.03 35778.6,5955.03Z" style="fill:white;fill-rule:nonzero;"/>
    </g>
    <g transform="matrix(-0.809017,-0.587785,0.826265,-1.13726,26601.2,28025.6)">
        <path d="M35782.7,5955.03L35782.7,5885.26" style="fill:white;"/>
    </g>
    <g transform="matrix(-0.809017,-0.587785,0.826265,-1.13726,26601.2,28025.6)">
        <path d="M35778.6,5955.03L35778.6,5885.26L35786.9,5885.26L35786.9,5955.03C35784.1,5955.03 35781.3,5955.03 35778.6,5955.03Z" style="fill:white;fill-rule:nonzero;"/>
    </g>
    <g transform="matrix(-0.951057,-0.309017,0.434393,-1.33692,33713.6,19084.7)">
        <path d="M35782.7,5955.03L35782.7,5885.26" style="fill:white;"/>
    </g>
    <g transform="matrix(-0.951057,-0.309017,0.434393,-1.33692,33713.6,19084.7)">
        <path d="M35778.6,5955.03L35778.6,5885.26L35786.9,5885.26L35786.9,5955.03C35784.1,5955.03 35781.3,5955.03 35778.6,5955.03Z" style="fill:white;fill-rule:nonzero;"/>
    </g>
    <g transform="matrix(-1,1.73472e-16,-2.31296e-16,-1.40573,37715,8383.64)">
        <path d="M35782.7,5955.03L35782.7,5885.26" style="fill:white;"/>
    </g>
    <g transform="matrix(-1,1.73472e-16,-2.31296e-16,-1.40573,37715,8383.64)">
        <rect x="35770.2" y="5885.26" width="25" height="69.77" style="fill:white;fill-rule:nonzero;"/>
    </g>
    <g transform="matrix(-0.951057,0.309017,-0.434393,-1.33692,38213.7,-3030.22)">
        <path d="M35782.7,5955.03L35782.7,5885.26" style="fill:white;"/>
    </g>
    <g transform="matrix(-0.951057,0.309017,-0.434393,-1.33692,38213.7,-3030.22)">
        <path d="M35778.6,5885.26L35786.9,5885.26L35786.9,5955.03L35778.6,5955.03C35778.6,5931.77 35778.6,5908.52 35778.6,5885.26Z" style="fill:white;fill-rule:nonzero;"/>
    </g>
    <g transform="matrix(-0.809017,0.587785,-0.826265,-1.13726,35161,-14039.6)">
        <path d="M35782.7,5955.03L35782.7,5885.26" style="fill:white;"/>
    </g>
    <g transform="matrix(-0.809017,0.587785,-0.826265,-1.13726,35161,-14039.6)">
        <path d="M35778.6,5885.26L35786.9,5885.26L35786.9,5955.03L35778.6,5955.03C35778.6,5931.77 35778.6,5908.51 35778.6,5885.26Z" style="fill:white;fill-rule:nonzero;"/>
    </g>
    <g transform="matrix(-0.587785,0.809017,-1.13726,-0.826265,28855.6,-23566.7)">
        <path d="M35782.7,5955.03L35782.7,5885.26" style="fill:white;"/>
    </g>
    <g transform="matrix(-0.587785,0.809017,-1.13726,-0.826265,28855.6,-23566.7)">
        <path d="M35778.6,5885.26L35786.9,5885.26L35786.9,5955.03L35778.6,5955.03C35778.6,5931.77 35778.6,5908.52 35778.6,5885.26Z" style="fill:white;fill-rule:nonzero;"/>
    </g>
    <g transform="matrix(0.309017,0.951057,-1.33692,0.434393,-2200.19,-35179.2)">
        <path d="M35782.7,5955.03L35782.7,5885.26" style="fill:white;"/>
    </g>
    <g transform="matrix(0.309017,0.951057,-1.33692,0.434393,-2200.19,-35179.2)">
        <path d="M35786.9,5885.26L35786.9,5955.03L35778.6,5955.03L35778.6,5885.26C35781.3,5885.26 35784.1,5885.26 35786.9,5885.26Z" style="fill:white;fill-rule:nonzero;"/>
    </g>
    <g transform="matrix(0.587785,0.809017,-1.13726,0.826265,-13209.5,-32126.5)">
        <path d="M35782.7,5955.03L35782.7,5885.26" style="fill:white;"/>
    </g>
    <g transform="matrix(0.587785,0.809017,-1.13726,0.826265,-13209.5,-32126.5)">
        <path d="M35786.9,5885.26L35786.9,5955.03L35778.6,5955.03L35778.6,5885.26C35781.3,5885.26 35784.1,5885.26 35786.9,5885.26Z" style="fill:white;fill-rule:nonzero;"/>
    </g>
    <g transform="matrix(0.809017,0.587785,-0.826265,1.13726,-22736.7,-25821.1)">
        <path d="M35782.7,5955.03L35782.7,5885.26" style="fill:white;"/>
    </g>
    <g transform="matrix(0.809017,0.587785,-0.826265,1.13726,-22736.7,-25821.1)">
        <path d="M35786.9,5885.26L35786.9,5955.03L35778.6,5955.03L35778.6,5885.26C35781.3,5885.26 35784.1,5885.26 35786.9,5885.26Z" style="fill:white;fill-rule:nonzero;"/>
    </g>
    <g transform="matrix(0.951057,0.309017,-0.434393,1.33692,-29849.1,-16880.2)">
        <path d="M35782.7,5955.03L35782.7,5885.26" style="fill:white;"/>
    </g>
    <g transform="matrix(0.951057,0.309017,-0.434393,1.33692,-29849.1,-16880.2)">
        <path d="M35786.9,5885.26L35786.9,5955.03L35778.6,5955.03L35778.6,5885.26C35781.3,5885.26 35784.1,5885.26 35786.9,5885.26Z" style="fill:white;fill-rule:nonzero;"/>
    </g>
    <g transform="matrix(1,0,0,1,-30800,-2663)">
        <path d="M33804.3,3961.13C33797.3,3999.99 33788.1,4038.47 33776.8,4076.33C33713.6,4288.59 33583.3,4480.42 33410,4618.38C33246,4748.88 33043.9,4830.62 32835,4850.2C32625.1,4869.86 32410,4827.86 32223.1,4728.84C32018.2,4620.24 31849.5,4444.74 31749.3,4236.03C31707.5,4148.91 31677.7,4056.2 31660.4,3961.13L31685.6,3961.13C31697.9,4026.83 31716.2,4091.48 31740.8,4153.98C31753.8,4187.02 31768.4,4219.29 31784.8,4251.22L31785.5,4252.64C31827.2,4333.11 31879.2,4408.62 31939.9,4476.25C32055.6,4605.13 32203.5,4705.7 32366.3,4765.34C32551.8,4833.33 32755.8,4847.74 32948.3,4808.01C33042.1,4788.66 33133,4756.56 33218.2,4712.71C33221.1,4711.24 33223.9,4709.74 33226.8,4708.24L33228.2,4707.49C33309.9,4664.31 33385.4,4611.06 33453.9,4547.86C33459.3,4542.8 33464.8,4537.66 33470.1,4532.51L33471.3,4531.42C33497.8,4505.74 33523.4,4478.52 33547.6,4449.71L33548.6,4448.48C33556.8,4438.66 33564.9,4428.74 33572.7,4418.64L33573.7,4417.38C33586.1,4401.31 33598.2,4384.91 33609.6,4368.3C33615.4,4359.96 33621,4351.51 33626.5,4342.97L33627.4,4341.62C33638.1,4324.99 33648.4,4308.1 33658.2,4290.84C33661.7,4284.77 33665.1,4278.69 33668.4,4272.56L33669.2,4271.14C33682.2,4247 33694.4,4222.25 33705.5,4197.33L33706.2,4195.85C33717.9,4169.19 33728.7,4142.25 33738.3,4114.31C33745.6,4093.3 33752.3,4071.91 33758.3,4050.28C33762.9,4033.92 33767,4017.62 33770.8,4000.77C33772.4,3993.75 33773.9,3986.74 33775.3,3979.72L33775.7,3978.11C33776.8,3972.47 33777.9,3966.81 33778.9,3961.13L33804.3,3961.13ZM31743.9,3306.21C31776,3237.24 31815.3,3171.59 31861.1,3110.79C31972.2,2963.13 32121.2,2844.24 32290,2769.12C32421,2710.78 32563.6,2678.97 32707.6,2675.78C32716.4,2675.58 32725.2,2675.5 32734,2675.51C32885.4,2675.87 33036.3,2707.63 33174.5,2769.12C33343.2,2844.2 33492.2,2963.04 33603.4,3110.79C33649.2,3171.64 33688.4,3237.27 33720.5,3306.21L33693.1,3306.21C33685.5,3290.43 33677.5,3274.8 33669.2,3259.35C33653.8,3231.02 33637.4,3203.68 33619.5,3176.79L33618.6,3175.46C33615.9,3171.46 33613.2,3167.47 33610.5,3163.51L33609.6,3162.19C33604.5,3154.73 33599.2,3147.31 33593.9,3139.97L33592.9,3138.68C33588.2,3132.23 33583.4,3125.81 33578.6,3119.45L33577.6,3118.18C33549.7,3081.91 33519.6,3047.24 33486.1,3013.64C33416.3,2943.61 33336.5,2883.26 33250.8,2835.29C33107.2,2754.86 32942.5,2708.26 32776.8,2701.42C32761.4,2700.78 32746,2700.49 32730.5,2700.51C32545.6,2700.94 32361.5,2749.8 32201.1,2842.44C32111.5,2894.15 32029.6,2959.08 31958.3,3034.28C31895.1,3101.33 31840.7,3176.04 31796.8,3256.51C31793.2,3263.12 31789.7,3269.77 31786.2,3276.43L31785.5,3277.85C31780.7,3287.23 31776,3296.69 31771.5,3306.21L31743.9,3306.21Z" style="fill:white;fill-rule:nonzero;"/>
    </g>
    <g transform="matrix(6.76339,0,0,6.76339,-9752.12,-12848.8)">
        <g transform="matrix(1,0,0,1,1662.17,2101.35)">
            <path d="M0,-2.491L0,6.608L-2.862,6.608L-2.862,-9.099L0.094,-9.099L2.63,-1.677L5.05,-9.099L8.145,-9.099L8.145,6.608L5.166,6.608L5.166,-2.561L3.165,2.884L2.001,2.884L0,-2.491Z" style="fill:white;fill-rule:nonzero;"/>
        </g>
        <g transform="matrix(1,0,0,1,1680.76,2105.14)">
            <path d="M0,-10.098C0,-10.238 -0.116,-10.354 -0.187,-10.354L-2.443,-10.354C-2.56,-10.354 -2.606,-10.191 -2.606,-10.098L-2.606,0.001C-2.606,0.094 -2.536,0.21 -2.443,0.21L-0.187,0.21C-0.116,0.21 0,0.117 0,0.001L0,-10.098ZM1.442,-12.984C2.443,-12.984 3.142,-12.286 3.142,-11.285L3.142,1.188C3.142,2.188 2.443,2.886 1.442,2.886L-4.049,2.886C-5.073,2.886 -5.748,2.188 -5.748,1.188L-5.748,-11.285C-5.748,-12.286 -5.073,-12.984 -4.049,-12.984L1.442,-12.984Z" style="fill:white;fill-rule:nonzero;"/>
        </g>
        <g transform="matrix(1,0,0,1,1694.42,2098.63)">
            <path d="M0,2.955C0,2.769 -0.116,2.629 -0.325,2.629L-2.676,2.629L-2.676,6.771L-0.325,6.771C-0.116,6.771 0,6.632 0,6.469L0,2.955ZM0,-3.421C0,-3.63 -0.116,-3.77 -0.325,-3.77L-2.676,-3.77L-2.676,0.186L-0.325,0.186C-0.116,0.186 0,0.046 0,-0.163L0,-3.421ZM-5.817,9.331L-5.817,-6.376L1.327,-6.376C2.374,-6.376 3.096,-5.655 3.096,-4.654L3.096,-0.582C3.096,0.581 2.397,1.28 1.304,1.489C2.397,1.722 3.118,2.443 3.118,3.49L3.118,7.586C3.118,8.633 2.397,9.331 1.35,9.331L-5.817,9.331Z" style="fill:white;fill-rule:nonzero;"/>
        </g>
        <g transform="matrix(-1,-0,0,1,3719.29,367.633)">
            <rect x="2014.17" y="1724.62" width="3.049" height="15.707" style="fill:white;"/>
        </g>
        <g transform="matrix(1,0,0,1,1709.96,2107.96)">
            <path d="M0,-15.707L3.118,-15.707L3.118,-2.723L6.865,-2.723L6.865,0L0,0L0,-15.707Z" style="fill:white;fill-rule:nonzero;"/>
        </g>
        <g transform="matrix(1,0,0,1,1720.57,2107.96)">
            <path d="M0,-15.707L7.424,-15.707L7.424,-13.031L3.142,-13.031L3.142,-9.238L6.749,-9.238L6.749,-6.608L3.142,-6.608L3.142,-2.676L7.424,-2.676L7.424,0L0,0L0,-15.707Z" style="fill:white;fill-rule:nonzero;"/>
        </g>
        <g transform="matrix(1,0,0,1,1743.53,2098.63)">
            <path d="M0,2.955C0,2.769 -0.116,2.629 -0.325,2.629L-2.676,2.629L-2.676,6.771L-0.325,6.771C-0.116,6.771 0,6.632 0,6.469L0,2.955ZM0,-3.421C0,-3.63 -0.116,-3.77 -0.325,-3.77L-2.676,-3.77L-2.676,0.186L-0.325,0.186C-0.116,0.186 0,0.046 0,-0.163L0,-3.421ZM-5.817,9.331L-5.817,-6.376L1.327,-6.376C2.374,-6.376 3.096,-5.655 3.096,-4.654L3.096,-0.582C3.096,0.581 2.397,1.28 1.304,1.489C2.397,1.722 3.118,2.443 3.118,3.49L3.118,7.586C3.118,8.633 2.397,9.331 1.35,9.331L-5.817,9.331Z" style="fill:white;fill-rule:nonzero;"/>
        </g>
        <g transform="matrix(1,0,0,1,1751.19,2107.96)">
            <path d="M0,-15.707L7.424,-15.707L7.424,-13.031L3.142,-13.031L3.142,-9.238L6.749,-9.238L6.749,-6.608L3.142,-6.608L3.142,-2.676L7.424,-2.676L7.424,0L0,0L0,-15.707Z" style="fill:white;fill-rule:nonzero;"/>
        </g>
        <g transform="matrix(1,0,0,1,1771.38,2107.96)">
            <path d="M0,-15.707L-3.304,0L-6.399,0L-9.68,-15.707L-6.399,-15.707L-4.816,-5.026L-3.071,-15.707L0,-15.707Z" style="fill:white;fill-rule:nonzero;"/>
        </g>
        <g transform="matrix(1,0,0,1,1775.13,2107.96)">
            <path d="M0,-15.707L7.424,-15.707L7.424,-13.031L3.142,-13.031L3.142,-9.238L6.749,-9.238L6.749,-6.608L3.142,-6.608L3.142,-2.676L7.424,-2.676L7.424,0L0,0L0,-15.707Z" style="fill:white;fill-rule:nonzero;"/>
        </g>
        <g transform="matrix(1,0,0,1,1792.46,2105.05)">
            <path d="M0,-9.889C0,-10.005 -0.093,-10.122 -0.186,-10.122L-2.56,-10.122L-2.56,-4.77L-0.186,-4.77C-0.093,-4.77 0,-4.886 0,-4.979L0,-9.889ZM1.257,-12.798C2.351,-12.798 3.095,-12.03 3.095,-10.936L3.095,-4.095C3.095,-3.141 2.537,-2.443 1.676,-2.28L3.142,2.909L0.047,2.909L-1.373,-2.233L-2.56,-2.233L-2.56,2.909L-5.701,2.909L-5.701,-12.798L1.257,-12.798Z" style="fill:white;fill-rule:nonzero;"/>
        </g>
        <g transform="matrix(1,0,0,1,1805.54,2099.19)">
            <path d="M0,1.837L0,-3.934C0,-4.166 -0.187,-4.306 -0.419,-4.306L-2.094,-4.306C-2.327,-4.306 -2.49,-4.143 -2.49,-3.934L-2.49,1.837L0,1.837ZM3.118,8.772L0,8.772L0,4.443L-2.49,4.443L-2.49,8.772L-5.608,8.772L-5.608,-5.237C-5.608,-6.237 -4.934,-6.935 -3.933,-6.935L1.42,-6.935C2.42,-6.935 3.118,-6.237 3.118,-5.237L3.118,8.772Z" style="fill:white;fill-rule:nonzero;"/>
        </g>
        <g transform="matrix(1,0,0,1,1817.59,2101.84)">
            <path d="M0,-3.49L5.143,-3.49L5.143,-0.861L4.188,-0.861L4.188,4.328C4.188,5.422 3.421,6.19 2.304,6.19L-2.513,6.19C-3.63,6.19 -4.375,5.422 -4.375,4.328L-4.375,-7.795C-4.375,-8.912 -3.63,-9.68 -2.513,-9.68L4.212,-9.68L4.212,-6.887L-1.047,-6.887C-1.14,-6.887 -1.233,-6.771 -1.233,-6.632L-1.233,3.165C-1.233,3.305 -1.14,3.398 -1.047,3.398L1.117,3.398C1.257,3.398 1.326,3.305 1.326,3.165L1.326,-0.861L0,-0.861L0,-3.49Z" style="fill:white;fill-rule:nonzero;"/>
        </g>
        <g transform="matrix(1,0,0,1,1826.73,2107.96)">
            <path d="M0,-15.707L7.424,-15.707L7.424,-13.031L3.142,-13.031L3.142,-9.238L6.749,-9.238L6.749,-6.608L3.142,-6.608L3.142,-2.676L7.424,-2.676L7.424,0L0,0L0,-15.707Z" style="fill:white;fill-rule:nonzero;"/>
        </g>
        <g transform="matrix(1,0,0,1,1857.98,2105.61)">
            <path d="M0,-11.077C0,-11.193 -0.069,-11.263 -0.163,-11.263L-2.164,-11.263C-2.233,-11.263 -2.304,-11.17 -2.304,-11.077L-2.304,-4.561C-2.304,-4.492 -2.233,-4.398 -2.164,-4.398L-0.163,-4.398C-0.069,-4.398 0,-4.468 0,-4.561L0,-11.077ZM1.42,-13.427C2.071,-13.427 2.514,-12.915 2.514,-12.194L2.514,-3.444C2.514,-2.723 2.071,-2.234 1.42,-2.234L-3.723,-2.234C-4.374,-2.234 -4.816,-2.723 -4.816,-3.444L-4.816,-12.194C-4.816,-12.915 -4.374,-13.427 -3.723,-13.427L1.42,-13.427ZM2.514,2.35L-14.241,2.35L-14.241,-0.024L2.514,-0.024L2.514,2.35ZM-7.051,-6.47L-7.051,-3.561C-7.051,-2.816 -7.539,-2.258 -8.121,-2.258L-13.193,-2.258C-13.775,-2.258 -14.241,-2.816 -14.241,-3.561L-14.241,-12.101C-14.241,-12.846 -13.775,-13.404 -13.193,-13.404L-8.121,-13.404C-7.539,-13.404 -7.051,-12.846 -7.051,-12.101L-7.051,-9.215L-9.563,-9.215L-9.563,-11.054C-9.563,-11.147 -9.634,-11.24 -9.68,-11.24L-11.588,-11.24C-11.658,-11.24 -11.728,-11.147 -11.728,-11.054L-11.728,-4.608C-11.728,-4.492 -11.658,-4.422 -11.588,-4.422L-9.68,-4.422C-9.634,-4.422 -9.563,-4.608 -9.563,-4.701L-9.563,-6.47L-7.051,-6.47Z" style="fill:white;fill-rule:nonzero;"/>
        </g>
    </g>
    <g transform="matrix(1,0,0,1,-11313.1,-10837.5)">
        <path d="M13351.6,12798C13350.7,12795.9 13348.3,12796.2 13347.4,12797.7C13338.4,12808.2 13316.2,12828.9 13311.4,12832.5C13306.9,12835.8 13302.4,12840 13297.6,12843C13297.3,12843.3 13296.4,12843.9 13295.8,12843.6C13294.9,12843.3 13294.6,12842.7 13294.3,12842.4C13288.3,12836.1 13279.6,12822 13274.8,12813C13273.9,12811.5 13273.9,12809.4 13275.1,12807.6C13284.1,12795.3 13289.5,12790.2 13292.8,12777C13294,12772.5 13294.9,12759.6 13288,12753.9C13282.6,12749.4 13275.4,12750 13267,12754.8C13256.2,12761.1 13247.8,12774.3 13247.8,12785.7C13247.8,12796.2 13249.3,12801 13252.9,12810C13253.8,12812.4 13255,12814.8 13256.2,12816.9C13255.6,12817.5 13255,12818.1 13254.4,12818.7L13239.7,12829.5C13233.7,12834.6 13226.8,12837.9 13219.6,12840.9C13205.8,12846.3 13189.9,12850.2 13172.8,12846.9C13164.1,12845.1 13152.7,12842.1 13147.3,12835.2C13127.8,12810.3 13137.1,12794.7 13133.5,12778.8C13132.3,12774 13131.7,12769.5 13126,12769.5C13123.3,12769.5 13121.5,12771 13120.3,12772.8C13117.9,12775.5 13116.7,12779.4 13115.8,12783C13114,12790.5 13114.9,12805.8 13119.4,12816.6C13126.3,12833.1 13135.3,12845.7 13165.6,12854.7C13188.7,12861.3 13214.8,12851.4 13233.7,12843C13237.6,12841.2 13252.6,12828.6 13259.8,12823.5C13267,12836.1 13274.5,12844.5 13276.6,12849.6C13277.5,12851.4 13278.1,12853.2 13278.1,12855C13278.1,12856.8 13277.8,12858.6 13276.3,12860.4C13274.8,12861.9 13272.7,12864 13270.9,12865.2C13265.2,12869.4 13260.1,12874.2 13255,12879C13248.4,12885.6 13240.6,12897 13241.2,12903C13241.5,12907.8 13244.8,12912.6 13250.8,12915.6C13255.6,12918 13264,12918.9 13269.1,12917.1C13280.2,12913.5 13285,12910.2 13291.6,12901.2C13299.7,12891 13304.8,12879 13302.4,12861.3C13302.1,12858.9 13301.2,12856.5 13300.6,12853.8C13300.6,12852.6 13300.9,12851.4 13301.5,12850.5C13303,12847.5 13306.3,12844.2 13308.7,12842.4C13314.4,12838.5 13337.2,12816.6 13348,12805.8C13349.8,12803.7 13351.3,12802.2 13352.2,12799.5C13352.2,12798.9 13352.2,12798.3 13351.6,12798ZM13270.9,12799.8C13268.5,12799.2 13266.4,12794.1 13267,12782.7C13267.6,12770.1 13273.3,12755.1 13284.1,12758.7C13286.2,12759.3 13288,12764.1 13288,12768.3C13288,12783 13274.2,12800.7 13270.9,12799.8ZM13279.6,12901.8C13276.9,12906.6 13272.1,12910.5 13265.5,12912C13259.2,12913.8 13254.7,12912.3 13250.8,12909C13248.1,12906.6 13247.8,12902.4 13251.1,12894.3C13255,12884.4 13264.3,12877.5 13273.3,12870C13275.1,12868.5 13278.4,12865.5 13279.9,12866.1C13281.4,12866.7 13282.3,12868.8 13282.9,12873C13284.4,12883.8 13285.3,12891 13279.6,12901.8Z" style="fill:white;fill-rule:nonzero;"/>
    </g>
    <g transform="matrix(1,0,0,1,-11356.8,-12655)">
        <path d="M13402.9,12836.7C13402.9,12836.1 13402.9,12835.5 13402.3,12834.9C13401.1,12833.7 13399.6,12834.3 13398.7,12835.5C13395.1,12840.6 13389.1,12861.9 13384.9,12869.4C13381,12876.3 13369.9,12898.5 13360.3,12897C13355.8,12896.4 13354.3,12888.6 13355.5,12873.6C13356.7,12861.6 13360.6,12846 13362.1,12834.6C13363,12825.3 13364.5,12808.5 13361.8,12803.1C13358.8,12797.1 13352.2,12790.8 13345.6,12792.6C13332.1,12796.5 13328.2,12800.7 13318.6,12812.1C13312.6,12818.1 13308.1,12827.4 13301.5,12832.8C13298.2,12836.1 13296.4,12834.9 13296.4,12828.6C13296.4,12816.6 13297,12808.5 13297,12795C13297,12792.3 13295.2,12787.5 13286.5,12786.9L13284.1,12786.9C13278.1,12786.9 13270.9,12787.8 13264.3,12789C13238.2,12794.1 13207.3,12811.8 13179.1,12820.2C13166.8,12823.8 13157.2,12825.6 13146.7,12820.2C13136.2,12814.8 13132,12800.4 13129.3,12792.3C13128.7,12789.9 13124.2,12786 13120,12786.9C13116.1,12787.8 13115.2,12795 13115.8,12798.9C13116.4,12804.6 13122.1,12819.6 13138.3,12829.2C13147.9,12834.9 13161.7,12832.5 13181.2,12826.5C13200.1,12820.5 13222.3,12809.1 13255.3,12797.7C13264,12794.7 13270,12793.5 13277.5,12793.5L13277.8,12793.5C13277.5,12793.8 13277.5,12794.1 13277.5,12794.4C13274.2,12810.9 13272.7,12827.1 13268.8,12859.2C13267.6,12870 13264.6,12881.4 13263.1,12894C13262.5,12900.6 13261.3,12903 13265.2,12907.8C13268.2,12911.7 13276.9,12912.3 13279.3,12908.1C13281.7,12904.8 13282.9,12901.5 13283.8,12897.3C13284.4,12894.9 13287.7,12880.8 13288.6,12879C13290.7,12873.3 13293.4,12864.6 13296.4,12859.2C13301.8,12850.2 13311.7,12831.9 13318.3,12824.1C13322.5,12818.7 13329.7,12810.9 13336.6,12805.5C13340.5,12803.7 13345,12805.2 13345,12810.6C13345.6,12813.3 13342,12829.8 13340.5,12834.9C13333,12862.8 13332.1,12875.1 13335.1,12889.8C13337.8,12903.3 13346.8,12907.2 13354.9,12908.7C13362.4,12910.2 13373.8,12901.5 13378.6,12895.8C13384,12889.5 13391.5,12872.7 13394.5,12865.5C13397.2,12859.2 13400.5,12847.8 13403.2,12838.5C13403.5,12837.9 13402.9,12837.3 13402.9,12836.7Z" style="fill:white;fill-rule:nonzero;"/>
    </g>
    <g transform="matrix(1.21253,0,0,1.21253,-15865.3,-19517.9)">
        <path d="M13809.5,17116.2C13822.7,17118 13836.5,17113.8 13846.7,17106C13856.9,17096.4 13861.1,17091.6 13865.9,17087.4C13883.9,17072.4 13896.5,17053.8 13909.7,17035.2C13911.5,17030.4 13914.5,17026.2 13913.9,17021.4C13913.9,17020.2 13912.7,17019 13911.5,17019C13910.3,17018.4 13907.9,17018.4 13907.9,17019L13888.1,17046.6C13879.7,17059.2 13863.5,17073.6 13849.1,17088C13832.3,17103 13804.7,17108.4 13804.7,17083.8C13804.7,17037.6 13818.5,16927.8 13831.1,16836.6C13831.1,16833 13833.5,16831.2 13837.1,16831.2C13871.3,16831.2 13903.7,16824 13909.7,16819.2C13916.9,16813.2 13913.9,16805.4 13906.1,16807.8C13899.5,16809.6 13872.5,16814.4 13840.7,16812.6C13837.1,16812.6 13834.7,16809 13835.3,16805.4L13837.7,16786.2C13840.7,16766.4 13844.9,16741.8 13846.7,16726.8C13848.5,16714.2 13852.1,16699.8 13850.3,16687.2C13850.3,16683 13846.1,16680 13843.7,16678.8C13839.5,16677 13834.1,16674 13829.9,16677C13828.1,16678.2 13825.7,16680 13824.5,16681.8C13819.1,16689 13814.9,16696.8 13813.1,16705.2C13807.1,16726.2 13798.7,16768.8 13792.1,16798.2C13791.5,16801.2 13789.1,16803 13786.1,16803C13751.9,16802.4 13720.7,16810.2 13705.7,16814.4C13654.1,16828.2 13591.7,16860 13535.3,16876.8C13510.7,16884 13491.5,16887.6 13470.5,16876.8C13449.5,16866 13441.1,16837.2 13435.7,16821C13434.5,16816.2 13425.5,16808.4 13417.1,16810.2C13409.3,16812 13407.5,16826.4 13408.7,16834.2C13409.9,16845.6 13421.3,16875.6 13453.7,16894.8C13472.9,16906.2 13500.5,16901.4 13539.5,16889.4C13577.3,16877.4 13621.7,16854.6 13687.7,16831.8C13709.9,16824.6 13755.5,16816.8 13782.5,16822.8C13786.1,16823.4 13787.3,16826.4 13787.3,16829.4C13784.9,16843.2 13780.7,16868.4 13777.1,16885.8C13769.3,16922.4 13763.3,16945.2 13760.3,16981.8C13759.1,16993.8 13756.7,17055.6 13763.3,17072.4C13769.9,17093.4 13783.1,17113.2 13809.5,17116.2Z" style="fill:white;fill-rule:nonzero;"/>
        <path d="M13957.1,17114.4C13995.5,17107.2 14014.7,17052.6 14032.7,17012.4C14033.3,17011.2 14036.3,17005.8 14041.1,17005.8C14042.9,17005.8 14044.7,17007.6 14044.7,17010.6C14045.3,17020.8 14044.7,17031 14044.7,17041.2C14044.7,17048.4 14045.3,17056.2 14045.9,17064C14047.1,17079.6 14054.3,17101.2 14069.9,17107.8C14096.9,17119.2 14130.5,17110.2 14156.3,17070.6C14176.1,17040.6 14199.5,16975.2 14201.3,16970.4C14203.1,16965 14206.1,16959 14206.7,16952.4C14206.7,16950 14204.9,16947.6 14202.5,16947.6C14200.7,16947 14200.1,16947 14198.9,16947.6C14195.3,16951.2 14192.9,16955.4 14191.7,16960.8C14179.7,17003.4 14135.3,17092.2 14102.9,17083.2C14096.9,17081.4 14092.1,17076 14092.1,17067C14092.1,17040 14092.1,17013.6 14092.7,16987.2C14092.7,16963.2 14092.7,16939.2 14090.9,16915.2C14090.9,16909.8 14088.5,16905.6 14086.1,16900.8C14081.9,16895.4 14074.7,16896 14069.9,16900.8C14060.9,16909.2 14062.1,16918.2 14059.1,16936.8C14056.7,16941.6 14054.9,16946.4 14052.5,16950.6C14045.9,16963.8 14038.7,16977.6 14030.9,16990.8C14009.9,17029.8 13996.7,17062.8 13973.3,17080.8C13965.5,17086.8 13950.5,17085 13948.1,17072.4C13939.1,17029.8 13945.1,16957.2 13976.9,16911C13994.9,16885.2 14014.7,16875.6 14033.3,16881.6C14045.9,16884 14023.7,16921.8 14038.7,16921.8C14041.1,16921.8 14042.9,16921.8 14046.5,16918.2C14052.5,16908 14053.7,16901.4 14053.7,16890C14053.7,16877.4 14046.5,16866.6 14034.5,16865.4C14002.1,16860.6 13964.3,16884.6 13943.9,16912.8C13901.3,16971 13890.5,17044.8 13907.9,17089.2C13916.9,17106 13937.9,17118 13957.1,17114.4Z" style="fill:white;fill-rule:nonzero;"/>
        <path d="M14359.1,17032.8C14351.9,17028.6 14345.9,17025.6 14339.9,17023.2C14350.1,16971 14348.3,16911.6 14327.3,16885.2C14316.5,16871.4 14305.1,16863.6 14284.7,16866C14266.7,16867.2 14252.9,16881.6 14245.1,16893.6L14240.9,16900.2C14240.9,16900.2 14237.3,16888.2 14236.1,16885.8C14232.5,16878 14223.5,16873.2 14215.1,16878C14208.5,16882.8 14204.9,16890.6 14203.1,16899C14204.3,16896 14183.3,16996.8 14171.3,17040C14160.5,17076 14141.9,17118 14129.3,17151C14110.7,17200.8 14098.7,17236.2 14093.9,17283C14092.1,17302.2 14089.7,17358.6 14126.3,17358.6C14143.7,17358.6 14161.7,17353.8 14179.1,17319C14206.7,17264.4 14209.1,17179.2 14212.1,17130.6C14212.7,17111.4 14228.9,16952.4 14243.9,16925.4C14252.3,16910.4 14270.3,16887.6 14285.3,16887.6C14304.5,16887.6 14308.7,16904.4 14306.9,16943.4C14305.7,16972.2 14305.1,16982.4 14299.1,17009.4C14298.5,17012.4 14296.7,17016 14293.7,17016.6C14257.1,17022 14227.7,17055 14233.1,17087.4C14237.9,17119.8 14282.3,17121.6 14311.1,17090.4C14323.1,17074.8 14332.7,17055 14336.9,17037C14342.3,17038.8 14347.1,17040.6 14349.5,17043C14355.5,17048.4 14366.9,17037.6 14359.1,17032.8ZM14293.7,17058C14287.1,17076.6 14272.1,17097.6 14253.5,17086.2C14241.5,17079 14253.5,17054.4 14268.5,17041.8C14278.1,17034 14294.3,17029.2 14296.7,17031.6C14297.9,17032.8 14297.3,17047.8 14293.7,17058ZM14156.3,17258.4C14153.9,17277.6 14147.9,17337.6 14126.9,17337.6C14099.3,17337.6 14107.7,17264.4 14117.3,17227.8C14128.1,17186.4 14143.1,17155.2 14163.5,17121L14165.9,17119.8C14167.1,17122.2 14167.7,17124.6 14167.7,17127C14167.7,17161.8 14162.9,17206.2 14156.3,17258.4Z" style="fill:white;fill-rule:nonzero;"/>
        <path d="M14662.1,16966.8C14661.5,16965.6 14660.3,16964.4 14659.1,16964.4C14657.9,16963.8 14655.5,16964.4 14655.5,16965C14649.5,16974 14644.1,16984.8 14637.5,16998.6C14619.5,17036.4 14579.3,17093.4 14560.7,17099.4C14548.1,17103 14539.1,17096.4 14536.1,17083.8C14528.3,17049.6 14542.1,16980 14548.7,16940.4C14548.7,16941.6 14556.5,16885.8 14560.1,16854C14599.7,16857 14642.9,16848 14649.5,16842.6C14656.7,16836.6 14653.7,16828.8 14645.9,16831.2C14638.1,16833.6 14601.5,16839.6 14562.5,16834.2L14564.9,16806L14566.7,16789.2C14569.7,16763.4 14581.7,16704.6 14581.7,16687.8C14581.7,16681.8 14575.1,16678.2 14572.7,16677C14566.1,16674 14556.5,16676.4 14552.9,16681.8C14540.9,16698 14530.1,16734 14525.9,16766.4L14522.3,16786.2C14521.7,16790.4 14519.3,16803.6 14516.9,16819.8C14496.5,16809 14486.3,16794 14482.1,16784.4C14478.5,16774.8 14477.9,16762.8 14480.3,16756.8C14483.3,16749.6 14474.9,16749 14469.5,16749C14456.9,16749 14446.7,16765.2 14450.3,16786.8C14454.5,16809.6 14478.5,16831.2 14513.3,16843.8L14505.5,16893C14495.9,16951.8 14479.1,17029.8 14494.7,17072.4C14509.1,17113.2 14549.9,17127.6 14578.1,17106C14603.3,17086.8 14637.5,17031 14658.5,16980.6C14660.9,16974.6 14662.7,16971.6 14662.1,16966.8Z" style="fill:white;fill-rule:nonzero;"/>
        <path d="M14706.5,17108.4C14728.7,17098.2 14742.5,17065.8 14759.9,17031C14764.1,17022.6 14774.9,16991.4 14781.5,16987.8C14798.9,16984.2 14825.9,16972.2 14851.7,16943.4C14852.3,16942.2 14854.1,16939.8 14853.5,16938C14853.5,16936.2 14854.7,16934.4 14852.3,16933.8C14850.5,16931.4 14846.9,16931.4 14844.5,16933.8C14841.5,16936.2 14839.1,16939.8 14833.1,16944.6C14818.1,16957.2 14804.9,16966.2 14786.9,16968C14785.7,16966.8 14789.3,16951.2 14789.3,16936.2C14789.3,16925.4 14787.5,16915.8 14782.1,16906.8C14780.3,16903.8 14777.9,16900.2 14774.9,16898.4C14770.1,16896 14767.7,16891.8 14764.7,16887.6C14759.9,16879.8 14755.7,16876.2 14746.7,16873.2C14743.1,16872 14733.5,16872 14728.7,16872.6C14712.5,16874.4 14696.3,16882.2 14684.9,16894.2C14651.9,16927.8 14642.9,16963.8 14635.7,16997.4C14632.7,17017.2 14632.1,17055.6 14638.7,17076.6C14647.7,17104.8 14679.5,17121.6 14706.5,17108.4ZM14698.7,17091.6C14686.7,17093.4 14679.5,17064 14678.9,17055.6C14677.7,17039.4 14678.3,16995 14684.3,16964.4C14694.5,16914 14713.7,16889.4 14738.3,16885.8C14746.7,16884.6 14750.3,16897.8 14750.3,16897.8C14730.5,16908 14727.5,16929.6 14729.3,16945.2C14730.5,16960.2 14741.3,16977.6 14758.7,16984.2C14763.5,16986 14761.7,16995 14759.9,16999.2C14749.1,17026.8 14738.9,17046 14728.1,17064.6C14722.1,17075.4 14710.1,17089.8 14698.7,17091.6ZM14770.7,16964.4C14765.9,16965 14758.1,16958.4 14755.7,16954.8C14748.5,16944 14746.1,16938 14749.1,16920C14749.7,16917 14753.3,16910.4 14760.5,16909.2C14766.5,16908 14773.1,16913.4 14774.3,16921.2C14775.5,16926.6 14776.1,16930.8 14776.1,16938C14776.1,16941.6 14774.3,16963.8 14770.7,16964.4Z" style="fill:white;fill-rule:nonzero;"/>
        <path d="M14983.7,17107.8C15010.7,17119.2 15044.3,17110.2 15070.1,17070.6C15089.9,17040.6 15113.3,16975.2 15115.1,16970.4C15116.9,16965 15119.9,16959 15120.5,16952.4C15120.5,16950 15118.7,16947.6 15116.3,16947.6C15114.5,16947 15113.9,16947 15112.7,16947.6C15109.1,16951.2 15106.7,16955.4 15105.5,16960.8C15093.5,17003.4 15046.1,17100 15016.7,17083.2C15004.1,17076 15005.9,17061.6 15011.3,17026.2C15018.5,16981.8 15020.3,16962 15022.7,16895.4C15022.7,16889.4 15019.1,16883.4 15014.9,16879.8C15011.3,16876.2 14998.1,16877.4 14995.1,16882.8C14992.1,16888.2 14987.3,16895.4 14983.7,16900.8C14969.3,16921.2 14956.7,16953.6 14951.3,16963.2C14936.9,16989 14917.7,17024.4 14908.1,17042.4C14896.1,17064 14889.5,17074.8 14878.1,17080.8C14875.1,17082.6 14873.3,17082.6 14870.3,17079.6C14866.1,17072.4 14869.7,17038.8 14873.3,17019.6C14878.7,16993.8 14888.9,16944.6 14891.3,16909.2C14891.9,16902.6 14890.1,16887 14887.1,16879.2C14882.3,16871.4 14876.9,16872 14868.5,16873.8C14860.1,16875.6 14857.1,16881.6 14855.9,16885.2C14849.3,16902 14840.3,16941.6 14837.3,16957.8C14830.1,16994.4 14817.5,17043.6 14818.1,17088.6C14818.1,17100.6 14833.1,17115 14858.9,17109.6C14864.3,17108.4 14879.3,17104.2 14889.5,17094C14900.9,17083.8 14909.9,17070 14920.1,17049.6C14926.1,17037 14929.7,17030.4 14936.9,17016.6C14944.7,17003.4 14954.9,16981.8 14965.1,16969.2C14966.9,16966.8 14969.3,16966.2 14970.5,16966.8C14972.3,16967.4 14972.3,16969.8 14972.3,16971.6C14972.3,17022 14958.5,17052.6 14963.3,17076C14965.1,17086.2 14969.9,17101.2 14983.7,17107.8Z" style="fill:white;fill-rule:nonzero;"/>
        <path d="M15287.9,16953C15286.1,16952.4 15285.5,16952.4 15284.3,16953C15280.7,16956.6 15279.5,16960.8 15277.1,16966.2C15243.5,17044.8 15215.9,17094 15181.7,17083.8C15163.1,17078.4 15168.5,17053.8 15178.1,17026.2C15185.9,17010 15204.5,16959.6 15200.3,16939.2C15199.1,16932.6 15191.9,16927.2 15185.3,16927.2C15170.9,16927.2 15155.9,16928.4 15146.3,16912.2C15139.1,16901.4 15151.7,16886.4 15157.1,16876.8C15167.3,16857.6 15173.3,16845 15176.3,16828.8C15184.1,16785 15151.1,16774.8 15127.1,16787.4C15094.7,16804.2 15086.3,16878.6 15100.1,16903.2C15104.9,16912.2 15110.3,16920 15116.9,16926C15110.9,16942.2 15101.9,16968 15089.3,16998C15087.5,17002.8 15088.1,17007 15091.1,17008.8C15094.1,17010 15098.3,17007.6 15101.3,17001.6C15113.9,16973.4 15122.9,16950 15127.1,16934.4C15133.1,16938 15140.3,16940.4 15148.7,16942.2C15155.3,16943.4 15160.7,16949.4 15156.5,16957.8L15145.1,16982.4C15130.7,17009.4 15117.5,17046 15125.9,17076C15132.5,17099.4 15158.9,17108.4 15175.1,17109C15205.7,17110.2 15223.1,17094 15240.5,17068.2C15256.7,17044.8 15284.9,16980.6 15286.7,16975.8C15288.5,16970.4 15291.5,16964.4 15292.1,16957.8C15292.1,16955.4 15290.3,16953 15287.9,16953ZM15136.1,16880.4C15129.5,16881 15128.3,16867.2 15127.1,16852.8C15124.7,16828.8 15131.9,16794 15154.7,16797.6C15158.9,16798.8 15164.3,16804.2 15165.5,16807.8C15166.7,16815.6 15166.7,16823.4 15163.7,16830C15158.9,16846.2 15149.3,16872 15136.1,16880.4Z" style="fill:white;fill-rule:nonzero;"/>
        <path d="M15338.9,16812C15343.1,16809.6 15349.7,16802.4 15349.7,16794.6C15349.7,16784.4 15344.3,16780.2 15339.5,16776.6C15329.9,16773 15321.5,16774.8 15318.5,16776C15313.1,16777.8 15305.9,16783.2 15304.1,16788.6C15301.7,16792.8 15301.1,16802.4 15308.3,16809C15315.5,16815.6 15329.3,16817.4 15338.9,16812ZM15316.1,17112.6C15359.9,17104.8 15389.9,17041.2 15407.9,16995C15410.9,16987.2 15413.3,16983 15415.7,16976.4C15416.9,16972.8 15416.9,16968.6 15413.3,16967.4C15411.5,16966.8 15407.9,16966.8 15405.5,16972.8C15393.5,17004 15368.3,17050.8 15358.1,17063.4C15343.1,17082 15332.3,17091 15320.9,17091C15314.9,17091 15302.3,17086.8 15303.5,17068.8C15304.1,17059.8 15311.9,17014.8 15317.9,16982.4C15322.7,16956 15330.5,16916.4 15330.5,16891.8C15330.5,16876.2 15316.1,16868.4 15301.7,16875C15298.7,16876.2 15295.1,16884 15293.9,16887C15289.1,16908.6 15280.1,16954.8 15271.7,16990.8C15268.7,17004 15263.9,17030.4 15261.5,17043.6C15251.9,17095.8 15272.9,17120.4 15316.1,17112.6Z" style="fill:white;fill-rule:nonzero;"/>
        <path d="M15598.1,16909.2C15596.3,16905 15591.5,16905.6 15589.7,16908.6C15571.7,16929.6 15541.1,16956.6 15531.5,16963.8C15522.5,16970.4 15513.5,16975.8 15503.9,16981.8C15503.3,16982.4 15501.5,16983.6 15500.3,16983C15498.5,16982.4 15497.9,16981.2 15497.3,16980.6C15485.3,16968 15465.5,16929 15455.9,16911C15454.1,16908 15454.1,16903.8 15456.5,16900.2C15474.5,16875.6 15485.3,16865.4 15491.9,16839C15494.3,16830 15498.5,16815 15484.7,16803.6C15473.9,16794.6 15459.5,16795.8 15442.7,16805.4C15421.1,16818 15404.3,16844.4 15404.3,16867.2C15404.3,16888.2 15407.3,16897.8 15414.5,16915.8L15419.9,16927.8C15418.7,16932.6 15418.1,16936.8 15416.3,16942.8L15400.7,16984.8C15400.7,16987.8 15398.3,16990.2 15401.9,16992.6C15407.3,16995.6 15410.3,16990.2 15412.1,16986.6C15416.3,16976.4 15424.7,16957.8 15429.5,16945.2C15443.9,16969.2 15457.7,16985.4 15461.9,16995C15463.7,16998.6 15464.9,17002.2 15464.9,17005.8C15464.9,17009.4 15464.3,17013 15461.3,17016.6C15458.3,17019.6 15454.1,17023.8 15450.5,17026.2C15439.1,17034.6 15428.9,17044.2 15418.7,17053.8C15405.5,17067 15389.9,17089.8 15391.1,17101.8C15391.7,17111.4 15398.3,17121 15410.3,17127C15419.9,17131.8 15436.7,17133.6 15446.9,17130C15469.1,17122.8 15478.7,17116.2 15491.9,17098.2C15508.1,17077.2 15518.3,17053.8 15513.5,17018.4C15512.9,17013.6 15511.1,17008.8 15509.9,17003.4C15509.9,17001 15510.5,16998.6 15511.7,16996.8C15514.7,16990.8 15521.3,16987.2 15526.1,16983.6C15537.5,16975.8 15569.3,16946.4 15590.9,16924.8C15594.5,16920.6 15597.5,16917.6 15599.3,16912.2C15599.3,16911 15599.3,16909.8 15598.1,16909.2ZM15445.7,16888.2C15440.9,16887 15434.3,16870.8 15437.3,16857C15441.5,16839 15458.9,16803.6 15476.9,16813.2C15484.7,16817.4 15482.3,16824.6 15478.7,16840.8C15472.7,16866 15452.3,16890 15445.7,16888.2ZM15467.9,17099.4C15462.5,17109 15452.9,17116.8 15439.7,17119.8C15427.1,17123.4 15418.1,17120.4 15410.3,17113.8C15404.9,17109 15404.3,17100.6 15410.9,17084.4C15418.7,17064.6 15437.3,17050.8 15455.3,17035.8C15458.9,17032.8 15465.5,17026.8 15468.5,17028C15471.5,17029.2 15473.3,17033.4 15474.5,17041.8C15477.5,17063.4 15479.3,17077.8 15467.9,17099.4Z" style="fill:white;fill-rule:nonzero;"/>
        <path d="M15936.5,16948.8C15920.3,16932 15898.1,16932.6 15871.1,16939.8C15835.7,16948.8 15782.9,17013 15739.7,17042.4C15697.7,17071.8 15637.1,17110.2 15616.7,17092.2C15589.1,17075.4 15613.1,16981.2 15619.1,16940.4C15623.9,16910.4 15628.1,16879.2 15631.1,16854C15670.1,16857 15713.3,16848 15719.9,16842.6C15727.1,16836.6 15724.1,16828.8 15716.3,16831.2C15708.5,16833.6 15672.5,16839.6 15633.5,16834.2L15637.1,16809.6C15638.3,16776.6 15652.1,16704.6 15652.1,16687.8C15652.1,16681.8 15645.5,16678.2 15643.1,16677C15636.5,16674 15626.9,16676.4 15623.3,16681.8C15611.3,16698 15600.5,16750.2 15596.3,16782.6L15590.3,16821.6C15568.1,16810.2 15556.7,16794.6 15552.5,16784.4C15548.9,16774.8 15548.3,16762.8 15550.7,16756.8C15553.7,16749.6 15545.3,16749 15539.9,16749C15527.3,16749 15517.1,16765.2 15520.7,16786.8C15524.9,16810.2 15550.1,16832.4 15586.1,16844.4C15583.1,16861.8 15580.7,16878 15578.9,16885.8C15571.1,16922.4 15565.1,16945.2 15562.1,16981.8C15560.9,16993.8 15558.5,17055.6 15565.1,17072.4C15591.5,17160 15680.3,17106.6 15704.3,17091C15800.9,17029.2 15846.5,16966.2 15874.7,16956.6C15893.3,16949.4 15905.3,16954.2 15908.9,16964.4C15913.7,16977.6 15923.3,17000.4 15936.5,16998C15952.7,16998 15950.3,16962.6 15936.5,16948.8Z" style="fill:white;fill-rule:nonzero;"/>
    </g>
    <g transform="matrix(1.04684,0,0,0.703961,-32014.4,-1037.12)">
        <g transform="matrix(0.955258,0,0,1.42053,1366.22,-2074.82)">
            <path d="M30608.8,5280.43L30608.8,5130.03L30708,5130.03C30728.2,5130.03 30747,5125.59 30764.2,5116.7C30781.5,5107.81 30795.2,5095.81 30805.3,5080.7C30815.4,5065.59 30820.5,5049.32 30820.5,5031.9C30820.5,5014.12 30815.4,4997.77 30805.3,4982.83C30795.2,4967.9 30781.5,4955.99 30764.2,4947.1C30747,4938.21 30728.2,4933.77 30708,4933.77L30584.2,4933.77L30584.8,5280.43L30608.8,5280.43ZM30608.2,4958.3L30708,4958.3C30724,4958.3 30738.7,4961.59 30752.2,4968.16C30765.7,4974.74 30776.5,4983.63 30784.5,4994.83C30792.5,5006.03 30796.5,5018.39 30796.5,5031.9C30796.5,5045.05 30792.5,5057.23 30784.5,5068.43C30776.5,5079.63 30765.7,5088.52 30752.2,5095.1C30738.7,5101.68 30724,5104.97 30708,5104.97L30608.8,5104.97L30608.2,4958.3Z" style="fill:white;fill-rule:nonzero;"/>
        </g>
        <g transform="matrix(0.955258,0,0,1.42053,1366.22,-2074.82)">
            <path d="M31055.2,5284.16C31086.8,5284.16 31116.1,5276.25 31143.2,5260.43C31170.2,5244.61 31191.5,5223.1 31207.2,5195.9C31222.8,5168.7 31230.6,5139.1 31230.6,5107.1C31230.6,5075.1 31222.8,5045.5 31207.2,5018.3C31191.5,4991.1 31170.2,4969.59 31143.2,4953.77C31116.1,4937.94 31086.8,4930.03 31055.2,4930.03C31023.5,4930.03 30994.2,4937.94 30967.2,4953.77C30940.1,4969.59 30918.8,4991.1 30903.2,5018.3C30887.5,5045.5 30879.7,5075.1 30879.7,5107.1C30879.7,5139.1 30887.5,5168.7 30903.2,5195.9C30918.8,5223.1 30940.1,5244.61 30967.2,5260.43C30994.2,5276.25 31023.5,5284.16 31055.2,5284.16ZM31055.2,4954.57C31082.5,4954.57 31107.8,4961.41 31130.9,4975.1C31154,4988.79 31172.3,5007.28 31185.8,5030.57C31199.3,5053.85 31206.1,5079.36 31206.1,5107.1C31206.1,5134.83 31199.3,5160.34 31185.8,5183.63C31172.3,5206.92 31154,5225.41 31130.9,5239.1C31107.8,5252.79 31082.5,5259.63 31055.2,5259.63C31027.8,5259.63 31002.5,5252.79 30979.4,5239.1C30956.3,5225.41 30937.9,5206.92 30924.2,5183.63C30910.5,5160.34 30903.7,5134.83 30903.7,5107.1C30903.7,5079.36 30910.5,5053.85 30924.2,5030.57C30937.9,5007.28 30956.3,4988.79 30979.4,4975.1C31002.5,4961.41 31027.8,4954.57 31055.2,4954.57Z" style="fill:white;fill-rule:nonzero;"/>
        </g>
        <g transform="matrix(0.955258,0,0,1.42053,1366.22,-2074.82)">
            <path d="M31437.5,5284.16C31455.7,5284.16 31472.8,5280.7 31488.8,5273.77C31504.8,5266.83 31519,5256.97 31531.4,5244.16C31543.9,5232.08 31553.4,5217.85 31560,5201.5C31566.5,5185.14 31569.8,5167.9 31569.8,5149.77L31569.8,4933.77L31545.8,4933.77L31545.8,5149.77C31545.8,5164.7 31543.1,5178.92 31537.5,5192.43C31532,5205.94 31524.3,5217.68 31514.4,5227.63C31504,5237.94 31492.3,5245.85 31479.2,5251.36C31466,5256.88 31452.1,5259.63 31437.5,5259.63C31423.3,5259.63 31409.6,5256.88 31396.5,5251.36C31383.3,5245.85 31371.6,5237.94 31361.3,5227.63C31351.3,5217.68 31343.6,5205.94 31338.1,5192.43C31332.6,5178.92 31329.8,5164.7 31329.8,5149.77L31329.8,4933.77L31305.8,4933.77L31305.8,5149.77C31305.8,5167.9 31309.1,5185.14 31315.7,5201.5C31322.3,5217.85 31331.8,5232.08 31344.2,5244.16C31356.7,5256.97 31371,5266.83 31387.2,5273.77C31403.3,5280.7 31420.1,5284.16 31437.5,5284.16Z" style="fill:white;fill-rule:nonzero;"/>
        </g>
        <g transform="matrix(0.955258,0,0,1.42053,1366.22,-2074.82)">
            <path d="M31872.2,5280.43L31728.2,5105.5L31770.9,5105.5C31797.2,5105.5 31818.5,5102.12 31834.9,5095.36C31847,5089.68 31857.5,5081.05 31866.4,5069.5C31875.2,5057.94 31879.7,5045.23 31879.7,5031.36C31879.7,5018.92 31876,5007.1 31868.5,4995.9C31861,4984.7 31850.4,4975.54 31836.5,4968.43C31822.6,4961.32 31806.6,4957.77 31788.5,4957.77L31691.4,4957.77L31691.4,5280.43L31667.4,5280.43L31667.4,4933.77L31788.5,4933.77C31804.8,4933.77 31820.1,4936.34 31834.4,4941.5C31848.6,4946.65 31861,4954.03 31871.7,4963.63C31882,4972.88 31889.9,4983.36 31895.4,4995.1C31900.9,5006.83 31903.7,5018.92 31903.7,5031.36C31903.7,5050.92 31897.8,5068.43 31886.1,5083.9C31874.4,5099.36 31860.5,5110.48 31844.5,5117.23C31833.5,5122.21 31822.7,5125.32 31812.2,5126.57C31801.7,5127.81 31790.6,5128.43 31778.9,5128.43L31904.2,5280.43L31872.2,5280.43Z" style="fill:white;fill-rule:nonzero;"/>
        </g>
        <g transform="matrix(0.955258,0,0,1.42053,1366.22,-2074.82)">
            <rect x="32003.4" y="4933.77" width="24" height="346.667" style="fill:white;fill-rule:nonzero;"/>
        </g>
        <g transform="matrix(0.955258,0,0,1.42053,1366.22,-2074.82)">
            <path d="M32395.4,5286.3L32395.4,4933.77L32371.4,4933.77L32371.4,5216.43L32131.4,4929.5L32131.4,5280.43L32155.4,5280.43L32155.4,4998.83L32395.4,5286.3Z" style="fill:white;fill-rule:nonzero;"/>
        </g>
        <g transform="matrix(0.955258,0,0,1.42053,1366.22,-2074.82)">
            <path d="M32770.9,5108.16L32631.7,5108.16L32631.7,5132.16L32745.8,5132.16L32745.8,5256.43L32645.5,5256.43C32618.5,5256.43 32593.5,5249.59 32570.4,5235.9C32547.2,5222.21 32528.9,5203.81 32515.4,5180.7C32501.9,5157.59 32495.2,5132.34 32495.2,5104.97C32495.2,5077.59 32501.9,5052.43 32515.4,5029.5C32528.9,5006.57 32547.2,4988.34 32570.4,4974.83C32593.5,4961.32 32618.5,4954.57 32645.5,4954.57C32666.2,4954.57 32686.1,4958.74 32705.3,4967.1C32724.5,4975.45 32741.2,4987.28 32755.4,5002.57L32773,4986.03C32756.7,4968.25 32737.4,4954.39 32715.2,4944.43C32692.9,4934.48 32669.7,4929.5 32645.5,4929.5C32613.9,4929.5 32584.8,4937.41 32558.1,4953.23C32531.4,4969.05 32510.3,4990.39 32494.6,5017.23C32479,5044.08 32471.2,5073.32 32471.2,5104.97C32471.2,5136.97 32479,5166.39 32494.6,5193.23C32510.3,5220.08 32531.4,5241.32 32558.1,5256.97C32584.8,5272.61 32613.9,5280.43 32645.5,5280.43L32770.9,5280.43L32770.9,5108.16Z" style="fill:white;fill-rule:nonzero;"/>
        </g>
        <g transform="matrix(0.955258,0,0,1.42053,1366.22,-2074.82)">
            <path d="M33234.9,5112.43C33251.2,5121.68 33263.9,5132.97 33273,5146.3C33282.1,5159.63 33286.6,5173.94 33286.6,5189.23C33286.6,5202.39 33283.4,5214.92 33277,5226.83C33270.6,5238.74 33261.4,5249.14 33249.3,5258.03C33224.4,5275.81 33195.4,5284.7 33162.3,5284.7C33146,5284.7 33130.3,5282.39 33115.4,5277.77C33100.5,5273.14 33087.2,5266.57 33075.4,5258.03C33055.2,5243.1 33042.9,5224.79 33038.6,5203.1L33061.6,5190.3C33062.6,5209.85 33072.2,5225.85 33090.3,5238.3C33099.6,5245.41 33110.4,5250.83 33122.9,5254.57C33135.3,5258.3 33148.5,5260.16 33162.3,5260.16C33190.8,5260.16 33214.8,5252.88 33234.3,5238.3C33253.2,5224.43 33262.6,5208.08 33262.6,5189.23C33262.6,5178.21 33259.2,5167.9 33252.2,5158.3C33245.3,5148.7 33235.6,5140.52 33223.2,5133.77C33211.4,5127.72 33190.4,5122.92 33160.2,5119.36C33157.7,5119.01 33148.8,5117.59 33133.3,5115.1C33117.8,5112.61 33104.6,5108.7 33093.6,5103.36C33076.1,5094.83 33062.4,5083.54 33052.5,5069.5C33042.5,5055.45 33037.6,5040.25 33037.6,5023.9C33037.6,5010.74 33040.8,4998.39 33047.4,4986.83C33054,4975.28 33063.3,4965.05 33075.4,4956.16C33087.2,4947.63 33100.5,4941.05 33115.4,4936.43C33130.3,4931.81 33146,4929.5 33162.3,4929.5C33195.4,4929.5 33224.4,4938.39 33249.3,4956.16C33269.9,4971.81 33282,4989.94 33285.6,5010.57L33262.6,5023.36C33262.3,5014.48 33259.7,5005.94 33254.9,4997.77C33250.1,4989.59 33243.2,4982.12 33234.3,4975.36C33224.8,4968.25 33213.7,4962.83 33201.3,4959.1C33188.8,4955.36 33175.9,4953.5 33162.3,4953.5C33148.8,4953.5 33135.8,4955.36 33123.2,4959.1C33110.5,4962.83 33099.6,4968.25 33090.3,4975.36C33081.1,4982.12 33074,4989.68 33069,4998.03C33064,5006.39 33061.6,5015.01 33061.6,5023.9C33061.6,5034.92 33065.6,5045.85 33073.8,5056.7C33082,5067.54 33092.1,5075.99 33104.2,5082.03C33111.7,5085.59 33119.9,5088.16 33129,5089.77C33138.1,5091.36 33149.7,5093.05 33163.9,5094.83C33166.4,5095.19 33172.7,5096.08 33182.6,5097.5C33192.6,5098.92 33202.2,5100.88 33211.4,5103.36C33220.7,5105.85 33228.5,5108.88 33234.9,5112.43Z" style="fill:white;fill-rule:nonzero;"/>
        </g>
        <g transform="matrix(0.955258,0,0,1.42053,1366.22,-2074.82)">
            <path d="M33530.3,5284.16C33562,5284.16 33591.3,5276.25 33618.3,5260.43C33645.4,5244.61 33666.7,5223.1 33682.3,5195.9C33698,5168.7 33705.8,5139.1 33705.8,5107.1C33705.8,5075.1 33698,5045.5 33682.3,5018.3C33666.7,4991.1 33645.4,4969.59 33618.3,4953.77C33591.3,4937.94 33562,4930.03 33530.3,4930.03C33498.7,4930.03 33469.4,4937.94 33442.3,4953.77C33415.3,4969.59 33394,4991.1 33378.3,5018.3C33362.7,5045.5 33354.9,5075.1 33354.9,5107.1C33354.9,5139.1 33362.7,5168.7 33378.3,5195.9C33394,5223.1 33415.3,5244.61 33442.3,5260.43C33469.4,5276.25 33498.7,5284.16 33530.3,5284.16ZM33530.3,4954.57C33557.7,4954.57 33583,4961.41 33606.1,4975.1C33629.2,4988.79 33647.5,5007.28 33661,5030.57C33674.5,5053.85 33681.3,5079.36 33681.3,5107.1C33681.3,5134.83 33674.5,5160.34 33661,5183.63C33647.5,5206.92 33629.2,5225.41 33606.1,5239.1C33583,5252.79 33557.7,5259.63 33530.3,5259.63C33503,5259.63 33477.7,5252.79 33454.6,5239.1C33431.5,5225.41 33413.1,5206.92 33399.4,5183.63C33385.7,5160.34 33378.9,5134.83 33378.9,5107.1C33378.9,5079.36 33385.7,5053.85 33399.4,5030.57C33413.1,5007.28 33431.5,4988.79 33454.6,4975.1C33477.7,4961.41 33503,4954.57 33530.3,4954.57Z" style="fill:white;fill-rule:nonzero;"/>
        </g>
        <g transform="matrix(0.955258,0,0,1.42053,1366.22,-2074.82)">
            <path d="M33934.1,5284.16C33965.7,5284.16 33995.1,5276.25 34022.1,5260.43C34049.1,5244.61 34070.4,5223.1 34086.1,5195.9C34101.7,5168.7 34109.6,5139.1 34109.6,5107.1C34109.6,5075.1 34101.7,5045.5 34086.1,5018.3C34070.4,4991.1 34049.1,4969.59 34022.1,4953.77C33995.1,4937.94 33965.7,4930.03 33934.1,4930.03C33902.4,4930.03 33873.1,4937.94 33846.1,4953.77C33819.1,4969.59 33797.7,4991.1 33782.1,5018.3C33766.4,5045.5 33758.6,5075.1 33758.6,5107.1C33758.6,5139.1 33766.4,5168.7 33782.1,5195.9C33797.7,5223.1 33819.1,5244.61 33846.1,5260.43C33873.1,5276.25 33902.4,5284.16 33934.1,5284.16ZM33934.1,4954.57C33961.5,4954.57 33986.7,4961.41 34009.8,4975.1C34032.9,4988.79 34051.2,5007.28 34064.8,5030.57C34078.3,5053.85 34085,5079.36 34085,5107.1C34085,5134.83 34078.3,5160.34 34064.8,5183.63C34051.2,5206.92 34032.9,5225.41 34009.8,5239.1C33986.7,5252.79 33961.5,5259.63 33934.1,5259.63C33906.7,5259.63 33881.5,5252.79 33858.3,5239.1C33835.2,5225.41 33816.8,5206.92 33803.2,5183.63C33789.5,5160.34 33782.6,5134.83 33782.6,5107.1C33782.6,5079.36 33789.5,5053.85 33803.2,5030.57C33816.8,5007.28 33835.2,4988.79 33858.3,4975.1C33881.5,4961.41 33906.7,4954.57 33934.1,4954.57Z" style="fill:white;fill-rule:nonzero;"/>
        </g>
        <g transform="matrix(0.955258,0,0,1.42053,1366.22,-2074.82)">
            <path d="M34448.8,5286.3L34448.8,4933.77L34424.8,4933.77L34424.8,5216.43L34184.8,4929.5L34184.8,5280.43L34208.8,5280.43L34208.8,4998.83L34448.8,5286.3Z" style="fill:white;fill-rule:nonzero;"/>
        </g>
    </g>
</svg>
