<?xml version="1.0" encoding="UTF-8" standalone="no"?>
<!DOCTYPE svg PUBLIC "-//W3C//DTD SVG 1.1//EN" "http://www.w3.org/Graphics/SVG/1.1/DTD/svg11.dtd">
<svg width="100%" height="100%" viewBox="0 0 3558 2991" version="1.1" xmlns="http://www.w3.org/2000/svg" xmlns:xlink="http://www.w3.org/1999/xlink" xml:space="preserve" xmlns:serif="http://www.serif.com/" style="fill-rule:evenodd;clip-rule:evenodd;stroke-linejoin:round;stroke-miterlimit:1.41421;">
    <g transform="matrix(1,0,0,1.40573,-34003.9,-6179.15)">
        <path d="M35782.7,5955.03L35782.7,5885.26" style="fill:white;"/>
    </g>
    <g transform="matrix(1,0,0,1.40573,-34003.9,-6179.15)">
        <rect x="35770.2" y="5885.26" width="25" height="69.77" style="fill:white;fill-rule:nonzero;"/>
    </g>
    <g transform="matrix(0.951057,-0.309017,0.434393,1.33692,-34502.6,5234.7)">
        <path d="M35782.7,5955.03L35782.7,5885.26" style="fill:white;"/>
    </g>
    <g transform="matrix(0.951057,-0.309017,0.434393,1.33692,-34502.6,5234.7)">
        <path d="M35786.9,5955.03L35778.6,5955.03L35778.6,5885.26L35786.9,5885.26C35786.9,5908.52 35786.9,5931.77 35786.9,5955.03Z" style="fill:white;fill-rule:nonzero;"/>
    </g>
    <g transform="matrix(0.809017,-0.587785,0.826265,1.13726,-31449.9,16244)">
        <path d="M35782.7,5955.03L35782.7,5885.26" style="fill:white;"/>
    </g>
    <g transform="matrix(0.809017,-0.587785,0.826265,1.13726,-31449.9,16244)">
        <path d="M35786.9,5955.03L35778.6,5955.03L35778.6,5885.26L35786.9,5885.26C35786.9,5908.51 35786.9,5931.77 35786.9,5955.03Z" style="fill:white;fill-rule:nonzero;"/>
    </g>
    <g transform="matrix(0.587785,-0.809017,1.13726,0.826265,-25144.5,25771.2)">
        <path d="M35782.7,5955.03L35782.7,5885.26" style="fill:white;"/>
    </g>
    <g transform="matrix(0.587785,-0.809017,1.13726,0.826265,-25144.5,25771.2)">
        <path d="M35786.9,5955.03L35778.6,5955.03L35778.6,5885.26L35786.9,5885.26C35786.9,5908.51 35786.9,5931.77 35786.9,5955.03Z" style="fill:white;fill-rule:nonzero;"/>
    </g>
    <g transform="matrix(0.309017,-0.951057,1.33692,0.434393,-16203.6,32883.6)">
        <path d="M35782.7,5955.03L35782.7,5885.26" style="fill:white;"/>
    </g>
    <g transform="matrix(0.309017,-0.951057,1.33692,0.434393,-16203.6,32883.6)">
        <path d="M35786.9,5955.03L35778.6,5955.03L35778.6,5885.26L35786.9,5885.26C35786.9,5908.52 35786.9,5931.77 35786.9,5955.03Z" style="fill:white;fill-rule:nonzero;"/>
    </g>
    <g transform="matrix(-0.587785,-0.809017,1.13726,-0.826265,16920.6,34331)">
        <path d="M35782.7,5955.03L35782.7,5885.26" style="fill:white;"/>
    </g>
    <g transform="matrix(-0.587785,-0.809017,1.13726,-0.826265,16920.6,34331)">
        <path d="M35778.6,5955.03L35778.6,5885.26L35786.9,5885.26L35786.9,5955.03C35784.1,5955.03 35781.3,5955.03 35778.6,5955.03Z" style="fill:white;fill-rule:nonzero;"/>
    </g>
    <g transform="matrix(-0.809017,-0.587785,0.826265,-1.13726,26447.8,28025.6)">
        <path d="M35782.7,5955.03L35782.7,5885.26" style="fill:white;"/>
    </g>
    <g transform="matrix(-0.809017,-0.587785,0.826265,-1.13726,26447.8,28025.6)">
        <path d="M35778.6,5955.03L35778.6,5885.26L35786.9,5885.26L35786.9,5955.03C35784.1,5955.03 35781.3,5955.03 35778.6,5955.03Z" style="fill:white;fill-rule:nonzero;"/>
    </g>
    <g transform="matrix(-0.951057,-0.309017,0.434393,-1.33692,33560.2,19084.7)">
        <path d="M35782.7,5955.03L35782.7,5885.26" style="fill:white;"/>
    </g>
    <g transform="matrix(-0.951057,-0.309017,0.434393,-1.33692,33560.2,19084.7)">
        <path d="M35778.6,5955.03L35778.6,5885.26L35786.9,5885.26L35786.9,5955.03C35784.1,5955.03 35781.3,5955.03 35778.6,5955.03Z" style="fill:white;fill-rule:nonzero;"/>
    </g>
    <g transform="matrix(-1,1.73472e-16,-2.31296e-16,-1.40573,37561.6,8383.64)">
        <path d="M35782.7,5955.03L35782.7,5885.26" style="fill:white;"/>
    </g>
    <g transform="matrix(-1,1.73472e-16,-2.31296e-16,-1.40573,37561.6,8383.64)">
        <rect x="35770.2" y="5885.26" width="25" height="69.77" style="fill:white;fill-rule:nonzero;"/>
    </g>
    <g transform="matrix(-0.951057,0.309017,-0.434393,-1.33692,38060.3,-3030.22)">
        <path d="M35782.7,5955.03L35782.7,5885.26" style="fill:white;"/>
    </g>
    <g transform="matrix(-0.951057,0.309017,-0.434393,-1.33692,38060.3,-3030.22)">
        <path d="M35778.6,5885.26L35786.9,5885.26L35786.9,5955.03L35778.6,5955.03C35778.6,5931.77 35778.6,5908.52 35778.6,5885.26Z" style="fill:white;fill-rule:nonzero;"/>
    </g>
    <g transform="matrix(-0.809017,0.587785,-0.826265,-1.13726,35007.6,-14039.6)">
        <path d="M35782.7,5955.03L35782.7,5885.26" style="fill:white;"/>
    </g>
    <g transform="matrix(-0.809017,0.587785,-0.826265,-1.13726,35007.6,-14039.6)">
        <path d="M35778.6,5885.26L35786.9,5885.26L35786.9,5955.03L35778.6,5955.03C35778.6,5931.77 35778.6,5908.52 35778.6,5885.26Z" style="fill:white;fill-rule:nonzero;"/>
    </g>
    <g transform="matrix(-0.587785,0.809017,-1.13726,-0.826265,28702.2,-23566.7)">
        <path d="M35782.7,5955.03L35782.7,5885.26" style="fill:white;"/>
    </g>
    <g transform="matrix(-0.587785,0.809017,-1.13726,-0.826265,28702.2,-23566.7)">
        <path d="M35778.6,5885.26L35786.9,5885.26L35786.9,5955.03L35778.6,5955.03C35778.6,5931.77 35778.6,5908.51 35778.6,5885.26Z" style="fill:white;fill-rule:nonzero;"/>
    </g>
    <g transform="matrix(0.309017,0.951057,-1.33692,0.434393,-2353.61,-35179.2)">
        <path d="M35782.7,5955.03L35782.7,5885.26" style="fill:white;"/>
    </g>
    <g transform="matrix(0.309017,0.951057,-1.33692,0.434393,-2353.61,-35179.2)">
        <path d="M35786.9,5885.26L35786.9,5955.03L35778.6,5955.03L35778.6,5885.26C35781.3,5885.26 35784.1,5885.26 35786.9,5885.26Z" style="fill:white;fill-rule:nonzero;"/>
    </g>
    <g transform="matrix(0.587785,0.809017,-1.13726,0.826265,-13362.9,-32126.5)">
        <path d="M35782.7,5955.03L35782.7,5885.26" style="fill:white;"/>
    </g>
    <g transform="matrix(0.587785,0.809017,-1.13726,0.826265,-13362.9,-32126.5)">
        <path d="M35786.9,5885.26L35786.9,5955.03L35778.6,5955.03L35778.6,5885.26C35781.3,5885.26 35784.1,5885.26 35786.9,5885.26Z" style="fill:white;fill-rule:nonzero;"/>
    </g>
    <g transform="matrix(0.809017,0.587785,-0.826265,1.13726,-22890.1,-25821.1)">
        <path d="M35782.7,5955.03L35782.7,5885.26" style="fill:white;"/>
    </g>
    <g transform="matrix(0.809017,0.587785,-0.826265,1.13726,-22890.1,-25821.1)">
        <path d="M35786.9,5885.26L35786.9,5955.03L35778.6,5955.03L35778.6,5885.26C35781.3,5885.26 35784.1,5885.26 35786.9,5885.26Z" style="fill:white;fill-rule:nonzero;"/>
    </g>
    <g transform="matrix(0.951057,0.309017,-0.434393,1.33692,-30002.5,-16880.2)">
        <path d="M35782.7,5955.03L35782.7,5885.26" style="fill:white;"/>
    </g>
    <g transform="matrix(0.951057,0.309017,-0.434393,1.33692,-30002.5,-16880.2)">
        <path d="M35786.9,5885.26L35786.9,5955.03L35778.6,5955.03L35778.6,5885.26C35781.3,5885.26 35784.1,5885.26 35786.9,5885.26Z" style="fill:white;fill-rule:nonzero;"/>
    </g>
    <g transform="matrix(1,0,0,1,-30953.4,-2663)">
        <path d="M33804.3,3961.13C33797.3,3999.99 33788.1,4038.47 33776.8,4076.33C33713.6,4288.59 33583.3,4480.42 33410,4618.38C33246,4748.88 33043.9,4830.62 32835,4850.2C32625.1,4869.86 32410,4827.86 32223.1,4728.84C32018.2,4620.24 31849.5,4444.74 31749.3,4236.03C31707.5,4148.91 31677.7,4056.2 31660.4,3961.13L31685.6,3961.13C31697.9,4026.83 31716.2,4091.48 31740.8,4153.98C31753.8,4187.02 31768.4,4219.29 31784.8,4251.22L31785.5,4252.64C31827.2,4333.11 31879.2,4408.62 31939.9,4476.25C32055.6,4605.13 32203.5,4705.7 32366.3,4765.34C32551.8,4833.33 32755.8,4847.74 32948.3,4808.01C33042.1,4788.66 33133,4756.56 33218.2,4712.71C33221.1,4711.24 33223.9,4709.74 33226.8,4708.24L33228.2,4707.49C33309.9,4664.31 33385.4,4611.06 33453.9,4547.86C33459.3,4542.8 33464.8,4537.66 33470.1,4532.51L33471.3,4531.42C33497.8,4505.74 33523.4,4478.52 33547.6,4449.71L33548.6,4448.48C33556.8,4438.66 33564.9,4428.74 33572.7,4418.64L33573.7,4417.38C33586.1,4401.31 33598.2,4384.91 33609.6,4368.3C33615.4,4359.96 33621,4351.51 33626.5,4342.97L33627.4,4341.62C33638.1,4324.99 33648.4,4308.1 33658.2,4290.84C33661.7,4284.77 33665.1,4278.69 33668.4,4272.56L33669.2,4271.14C33682.2,4247 33694.4,4222.25 33705.5,4197.33L33706.2,4195.85C33717.9,4169.19 33728.7,4142.25 33738.3,4114.31C33745.6,4093.3 33752.3,4071.91 33758.3,4050.28C33762.9,4033.92 33767,4017.62 33770.8,4000.77C33772.4,3993.75 33773.9,3986.74 33775.3,3979.72L33775.7,3978.11C33776.8,3972.47 33777.9,3966.81 33778.9,3961.13L33804.3,3961.13ZM31743.9,3306.21C31776,3237.24 31815.3,3171.59 31861.1,3110.79C31972.2,2963.13 32121.2,2844.24 32290,2769.12C32421,2710.78 32563.6,2678.97 32707.6,2675.78C32716.4,2675.58 32725.2,2675.5 32734,2675.51C32885.4,2675.87 33036.3,2707.63 33174.5,2769.12C33343.2,2844.2 33492.2,2963.04 33603.4,3110.79C33649.2,3171.64 33688.4,3237.27 33720.5,3306.21L33693.1,3306.21C33685.5,3290.43 33677.5,3274.8 33669.2,3259.35C33653.8,3231.02 33637.4,3203.68 33619.5,3176.79L33618.6,3175.46C33615.9,3171.46 33613.2,3167.47 33610.5,3163.51L33609.6,3162.19C33604.5,3154.73 33599.2,3147.31 33593.9,3139.97L33592.9,3138.68C33588.2,3132.23 33583.4,3125.81 33578.6,3119.45L33577.6,3118.18C33549.7,3081.91 33519.6,3047.24 33486.1,3013.64C33416.3,2943.61 33336.5,2883.26 33250.8,2835.29C33107.2,2754.86 32942.5,2708.26 32776.8,2701.42C32761.4,2700.78 32746,2700.49 32730.5,2700.51C32545.6,2700.94 32361.5,2749.8 32201.1,2842.44C32111.5,2894.15 32029.6,2959.08 31958.3,3034.28C31895.1,3101.33 31840.7,3176.04 31796.8,3256.51C31793.2,3263.12 31789.7,3269.77 31786.2,3276.43L31785.5,3277.85C31780.7,3287.23 31776,3296.69 31771.5,3306.21L31743.9,3306.21Z" style="fill:white;fill-rule:nonzero;"/>
    </g>
    <g transform="matrix(6.76339,0,0,6.76339,-9905.53,-12848.8)">
        <g transform="matrix(1,0,0,1,1662.17,2101.35)">
            <path d="M0,-2.491L0,6.608L-2.862,6.608L-2.862,-9.099L0.094,-9.099L2.63,-1.677L5.05,-9.099L8.145,-9.099L8.145,6.608L5.166,6.608L5.166,-2.561L3.165,2.884L2.001,2.884L0,-2.491Z" style="fill:white;fill-rule:nonzero;"/>
        </g>
        <g transform="matrix(1,0,0,1,1680.76,2105.14)">
            <path d="M0,-10.098C0,-10.238 -0.116,-10.354 -0.187,-10.354L-2.443,-10.354C-2.56,-10.354 -2.606,-10.191 -2.606,-10.098L-2.606,0.001C-2.606,0.094 -2.536,0.21 -2.443,0.21L-0.187,0.21C-0.116,0.21 0,0.117 0,0.001L0,-10.098ZM1.442,-12.984C2.443,-12.984 3.142,-12.286 3.142,-11.285L3.142,1.188C3.142,2.188 2.443,2.886 1.442,2.886L-4.049,2.886C-5.073,2.886 -5.748,2.188 -5.748,1.188L-5.748,-11.285C-5.748,-12.286 -5.073,-12.984 -4.049,-12.984L1.442,-12.984Z" style="fill:white;fill-rule:nonzero;"/>
        </g>
        <g transform="matrix(1,0,0,1,1694.42,2098.63)">
            <path d="M0,2.955C0,2.769 -0.116,2.629 -0.325,2.629L-2.676,2.629L-2.676,6.771L-0.325,6.771C-0.116,6.771 0,6.632 0,6.469L0,2.955ZM0,-3.421C0,-3.63 -0.116,-3.77 -0.325,-3.77L-2.676,-3.77L-2.676,0.186L-0.325,0.186C-0.116,0.186 0,0.046 0,-0.163L0,-3.421ZM-5.817,9.331L-5.817,-6.376L1.327,-6.376C2.374,-6.376 3.096,-5.655 3.096,-4.654L3.096,-0.582C3.096,0.581 2.397,1.28 1.304,1.489C2.397,1.722 3.118,2.443 3.118,3.49L3.118,7.586C3.118,8.633 2.397,9.331 1.35,9.331L-5.817,9.331Z" style="fill:white;fill-rule:nonzero;"/>
        </g>
        <g transform="matrix(-1,-0,0,1,3719.29,367.633)">
            <rect x="2014.17" y="1724.62" width="3.049" height="15.707" style="fill:white;"/>
        </g>
        <g transform="matrix(1,0,0,1,1709.96,2107.96)">
            <path d="M0,-15.707L3.118,-15.707L3.118,-2.723L6.865,-2.723L6.865,0L0,0L0,-15.707Z" style="fill:white;fill-rule:nonzero;"/>
        </g>
        <g transform="matrix(1,0,0,1,1720.57,2107.96)">
            <path d="M0,-15.707L7.424,-15.707L7.424,-13.031L3.142,-13.031L3.142,-9.238L6.749,-9.238L6.749,-6.608L3.142,-6.608L3.142,-2.676L7.424,-2.676L7.424,0L0,0L0,-15.707Z" style="fill:white;fill-rule:nonzero;"/>
        </g>
        <g transform="matrix(1,0,0,1,1743.53,2098.63)">
            <path d="M0,2.955C0,2.769 -0.116,2.629 -0.325,2.629L-2.676,2.629L-2.676,6.771L-0.325,6.771C-0.116,6.771 0,6.632 0,6.469L0,2.955ZM0,-3.421C0,-3.63 -0.116,-3.77 -0.325,-3.77L-2.676,-3.77L-2.676,0.186L-0.325,0.186C-0.116,0.186 0,0.046 0,-0.163L0,-3.421ZM-5.817,9.331L-5.817,-6.376L1.327,-6.376C2.374,-6.376 3.096,-5.655 3.096,-4.654L3.096,-0.582C3.096,0.581 2.397,1.28 1.304,1.489C2.397,1.722 3.118,2.443 3.118,3.49L3.118,7.586C3.118,8.633 2.397,9.331 1.35,9.331L-5.817,9.331Z" style="fill:white;fill-rule:nonzero;"/>
        </g>
        <g transform="matrix(1,0,0,1,1751.19,2107.96)">
            <path d="M0,-15.707L7.424,-15.707L7.424,-13.031L3.142,-13.031L3.142,-9.238L6.749,-9.238L6.749,-6.608L3.142,-6.608L3.142,-2.676L7.424,-2.676L7.424,0L0,0L0,-15.707Z" style="fill:white;fill-rule:nonzero;"/>
        </g>
        <g transform="matrix(1,0,0,1,1771.38,2107.96)">
            <path d="M0,-15.707L-3.304,0L-6.399,0L-9.68,-15.707L-6.399,-15.707L-4.816,-5.026L-3.071,-15.707L0,-15.707Z" style="fill:white;fill-rule:nonzero;"/>
        </g>
        <g transform="matrix(1,0,0,1,1775.13,2107.96)">
            <path d="M0,-15.707L7.424,-15.707L7.424,-13.031L3.142,-13.031L3.142,-9.238L6.749,-9.238L6.749,-6.608L3.142,-6.608L3.142,-2.676L7.424,-2.676L7.424,0L0,0L0,-15.707Z" style="fill:white;fill-rule:nonzero;"/>
        </g>
        <g transform="matrix(1,0,0,1,1792.46,2105.05)">
            <path d="M0,-9.889C0,-10.005 -0.093,-10.122 -0.186,-10.122L-2.56,-10.122L-2.56,-4.77L-0.186,-4.77C-0.093,-4.77 0,-4.886 0,-4.979L0,-9.889ZM1.257,-12.798C2.351,-12.798 3.095,-12.03 3.095,-10.936L3.095,-4.095C3.095,-3.141 2.537,-2.443 1.676,-2.28L3.142,2.909L0.047,2.909L-1.373,-2.233L-2.56,-2.233L-2.56,2.909L-5.701,2.909L-5.701,-12.798L1.257,-12.798Z" style="fill:white;fill-rule:nonzero;"/>
        </g>
        <g transform="matrix(1,0,0,1,1805.54,2099.19)">
            <path d="M0,1.837L0,-3.934C0,-4.166 -0.187,-4.306 -0.419,-4.306L-2.094,-4.306C-2.327,-4.306 -2.49,-4.143 -2.49,-3.934L-2.49,1.837L0,1.837ZM3.118,8.772L0,8.772L0,4.443L-2.49,4.443L-2.49,8.772L-5.608,8.772L-5.608,-5.237C-5.608,-6.237 -4.934,-6.935 -3.933,-6.935L1.42,-6.935C2.42,-6.935 3.118,-6.237 3.118,-5.237L3.118,8.772Z" style="fill:white;fill-rule:nonzero;"/>
        </g>
        <g transform="matrix(1,0,0,1,1817.59,2101.84)">
            <path d="M0,-3.49L5.143,-3.49L5.143,-0.861L4.188,-0.861L4.188,4.328C4.188,5.422 3.421,6.19 2.304,6.19L-2.513,6.19C-3.63,6.19 -4.375,5.422 -4.375,4.328L-4.375,-7.795C-4.375,-8.912 -3.63,-9.68 -2.513,-9.68L4.212,-9.68L4.212,-6.887L-1.047,-6.887C-1.14,-6.887 -1.233,-6.771 -1.233,-6.632L-1.233,3.165C-1.233,3.305 -1.14,3.398 -1.047,3.398L1.117,3.398C1.257,3.398 1.326,3.305 1.326,3.165L1.326,-0.861L0,-0.861L0,-3.49Z" style="fill:white;fill-rule:nonzero;"/>
        </g>
        <g transform="matrix(1,0,0,1,1826.73,2107.96)">
            <path d="M0,-15.707L7.424,-15.707L7.424,-13.031L3.142,-13.031L3.142,-9.238L6.749,-9.238L6.749,-6.608L3.142,-6.608L3.142,-2.676L7.424,-2.676L7.424,0L0,0L0,-15.707Z" style="fill:white;fill-rule:nonzero;"/>
        </g>
        <g transform="matrix(1,0,0,1,1857.98,2105.61)">
            <path d="M0,-11.077C0,-11.193 -0.069,-11.263 -0.163,-11.263L-2.164,-11.263C-2.233,-11.263 -2.304,-11.17 -2.304,-11.077L-2.304,-4.561C-2.304,-4.492 -2.233,-4.398 -2.164,-4.398L-0.163,-4.398C-0.069,-4.398 0,-4.468 0,-4.561L0,-11.077ZM1.42,-13.427C2.071,-13.427 2.514,-12.915 2.514,-12.194L2.514,-3.444C2.514,-2.723 2.071,-2.234 1.42,-2.234L-3.723,-2.234C-4.374,-2.234 -4.816,-2.723 -4.816,-3.444L-4.816,-12.194C-4.816,-12.915 -4.374,-13.427 -3.723,-13.427L1.42,-13.427ZM2.514,2.35L-14.241,2.35L-14.241,-0.024L2.514,-0.024L2.514,2.35ZM-7.051,-6.47L-7.051,-3.561C-7.051,-2.816 -7.539,-2.258 -8.121,-2.258L-13.193,-2.258C-13.775,-2.258 -14.241,-2.816 -14.241,-3.561L-14.241,-12.101C-14.241,-12.846 -13.775,-13.404 -13.193,-13.404L-8.121,-13.404C-7.539,-13.404 -7.051,-12.846 -7.051,-12.101L-7.051,-9.215L-9.563,-9.215L-9.563,-11.054C-9.563,-11.147 -9.634,-11.24 -9.68,-11.24L-11.588,-11.24C-11.658,-11.24 -11.728,-11.147 -11.728,-11.054L-11.728,-4.608C-11.728,-4.492 -11.658,-4.422 -11.588,-4.422L-9.68,-4.422C-9.634,-4.422 -9.563,-4.608 -9.563,-4.701L-9.563,-6.47L-7.051,-6.47Z" style="fill:white;fill-rule:nonzero;"/>
        </g>
    </g>
    <g transform="matrix(1,0,0,1,-11466.5,-10837.5)">
        <path d="M13351.6,12798C13350.7,12795.9 13348.3,12796.2 13347.4,12797.7C13338.4,12808.2 13316.2,12828.9 13311.4,12832.5C13306.9,12835.8 13302.4,12840 13297.6,12843C13297.3,12843.3 13296.4,12843.9 13295.8,12843.6C13294.9,12843.3 13294.6,12842.7 13294.3,12842.4C13288.3,12836.1 13279.6,12822 13274.8,12813C13273.9,12811.5 13273.9,12809.4 13275.1,12807.6C13284.1,12795.3 13289.5,12790.2 13292.8,12777C13294,12772.5 13294.9,12759.6 13288,12753.9C13282.6,12749.4 13275.4,12750 13267,12754.8C13256.2,12761.1 13247.8,12774.3 13247.8,12785.7C13247.8,12796.2 13249.3,12801 13252.9,12810C13253.8,12812.4 13255,12814.8 13256.2,12816.9C13255.6,12817.5 13255,12818.1 13254.4,12818.7L13239.7,12829.5C13233.7,12834.6 13226.8,12837.9 13219.6,12840.9C13205.8,12846.3 13189.9,12850.2 13172.8,12846.9C13164.1,12845.1 13152.7,12842.1 13147.3,12835.2C13127.8,12810.3 13137.1,12794.7 13133.5,12778.8C13132.3,12774 13131.7,12769.5 13126,12769.5C13123.3,12769.5 13121.5,12771 13120.3,12772.8C13117.9,12775.5 13116.7,12779.4 13115.8,12783C13114,12790.5 13114.9,12805.8 13119.4,12816.6C13126.3,12833.1 13135.3,12845.7 13165.6,12854.7C13188.7,12861.3 13214.8,12851.4 13233.7,12843C13237.6,12841.2 13252.6,12828.6 13259.8,12823.5C13267,12836.1 13274.5,12844.5 13276.6,12849.6C13277.5,12851.4 13278.1,12853.2 13278.1,12855C13278.1,12856.8 13277.8,12858.6 13276.3,12860.4C13274.8,12861.9 13272.7,12864 13270.9,12865.2C13265.2,12869.4 13260.1,12874.2 13255,12879C13248.4,12885.6 13240.6,12897 13241.2,12903C13241.5,12907.8 13244.8,12912.6 13250.8,12915.6C13255.6,12918 13264,12918.9 13269.1,12917.1C13280.2,12913.5 13285,12910.2 13291.6,12901.2C13299.7,12891 13304.8,12879 13302.4,12861.3C13302.1,12858.9 13301.2,12856.5 13300.6,12853.8C13300.6,12852.6 13300.9,12851.4 13301.5,12850.5C13303,12847.5 13306.3,12844.2 13308.7,12842.4C13314.4,12838.5 13337.2,12816.6 13348,12805.8C13349.8,12803.7 13351.3,12802.2 13352.2,12799.5C13352.2,12798.9 13352.2,12798.3 13351.6,12798ZM13270.9,12799.8C13268.5,12799.2 13266.4,12794.1 13267,12782.7C13267.6,12770.1 13273.3,12755.1 13284.1,12758.7C13286.2,12759.3 13288,12764.1 13288,12768.3C13288,12783 13274.2,12800.7 13270.9,12799.8ZM13279.6,12901.8C13276.9,12906.6 13272.1,12910.5 13265.5,12912C13259.2,12913.8 13254.7,12912.3 13250.8,12909C13248.1,12906.6 13247.8,12902.4 13251.1,12894.3C13255,12884.4 13264.3,12877.5 13273.3,12870C13275.1,12868.5 13278.4,12865.5 13279.9,12866.1C13281.4,12866.7 13282.3,12868.8 13282.9,12873C13284.4,12883.8 13285.3,12891 13279.6,12901.8Z" style="fill:white;fill-rule:nonzero;"/>
    </g>
    <g transform="matrix(1,0,0,1,-11510.2,-12655)">
        <path d="M13402.9,12836.7C13402.9,12836.1 13402.9,12835.5 13402.3,12834.9C13401.1,12833.7 13399.6,12834.3 13398.7,12835.5C13395.1,12840.6 13389.1,12861.9 13384.9,12869.4C13381,12876.3 13369.9,12898.5 13360.3,12897C13355.8,12896.4 13354.3,12888.6 13355.5,12873.6C13356.7,12861.6 13360.6,12846 13362.1,12834.6C13363,12825.3 13364.5,12808.5 13361.8,12803.1C13358.8,12797.1 13352.2,12790.8 13345.6,12792.6C13332.1,12796.5 13328.2,12800.7 13318.6,12812.1C13312.6,12818.1 13308.1,12827.4 13301.5,12832.8C13298.2,12836.1 13296.4,12834.9 13296.4,12828.6C13296.4,12816.6 13297,12808.5 13297,12795C13297,12792.3 13295.2,12787.5 13286.5,12786.9L13284.1,12786.9C13278.1,12786.9 13270.9,12787.8 13264.3,12789C13238.2,12794.1 13207.3,12811.8 13179.1,12820.2C13166.8,12823.8 13157.2,12825.6 13146.7,12820.2C13136.2,12814.8 13132,12800.4 13129.3,12792.3C13128.7,12789.9 13124.2,12786 13120,12786.9C13116.1,12787.8 13115.2,12795 13115.8,12798.9C13116.4,12804.6 13122.1,12819.6 13138.3,12829.2C13147.9,12834.9 13161.7,12832.5 13181.2,12826.5C13200.1,12820.5 13222.3,12809.1 13255.3,12797.7C13264,12794.7 13270,12793.5 13277.5,12793.5L13277.8,12793.5C13277.5,12793.8 13277.5,12794.1 13277.5,12794.4C13274.2,12810.9 13272.7,12827.1 13268.8,12859.2C13267.6,12870 13264.6,12881.4 13263.1,12894C13262.5,12900.6 13261.3,12903 13265.2,12907.8C13268.2,12911.7 13276.9,12912.3 13279.3,12908.1C13281.7,12904.8 13282.9,12901.5 13283.8,12897.3C13284.4,12894.9 13287.7,12880.8 13288.6,12879C13290.7,12873.3 13293.4,12864.6 13296.4,12859.2C13301.8,12850.2 13311.7,12831.9 13318.3,12824.1C13322.5,12818.7 13329.7,12810.9 13336.6,12805.5C13340.5,12803.7 13345,12805.2 13345,12810.6C13345.6,12813.3 13342,12829.8 13340.5,12834.9C13333,12862.8 13332.1,12875.1 13335.1,12889.8C13337.8,12903.3 13346.8,12907.2 13354.9,12908.7C13362.4,12910.2 13373.8,12901.5 13378.6,12895.8C13384,12889.5 13391.5,12872.7 13394.5,12865.5C13397.2,12859.2 13400.5,12847.8 13403.2,12838.5C13403.5,12837.9 13402.9,12837.3 13402.9,12836.7Z" style="fill:white;fill-rule:nonzero;"/>
    </g>
    <g transform="matrix(1.21253,0,0,1.21253,-16018.7,-19517.9)">
        <path d="M13809.5,17116.2C13822.7,17118 13836.5,17113.8 13846.7,17106C13856.9,17096.4 13861.1,17091.6 13865.9,17087.4C13883.9,17072.4 13896.5,17053.8 13909.7,17035.2C13911.5,17030.4 13914.5,17026.2 13913.9,17021.4C13913.9,17020.2 13912.7,17019 13911.5,17019C13910.3,17018.4 13907.9,17018.4 13907.9,17019L13888.1,17046.6C13879.7,17059.2 13863.5,17073.6 13849.1,17088C13832.3,17103 13804.7,17108.4 13804.7,17083.8C13804.7,17037.6 13818.5,16927.8 13831.1,16836.6C13831.1,16833 13833.5,16831.2 13837.1,16831.2C13871.3,16831.2 13903.7,16824 13909.7,16819.2C13916.9,16813.2 13913.9,16805.4 13906.1,16807.8C13899.5,16809.6 13872.5,16814.4 13840.7,16812.6C13837.1,16812.6 13834.7,16809 13835.3,16805.4L13837.7,16786.2C13840.7,16766.4 13844.9,16741.8 13846.7,16726.8C13848.5,16714.2 13852.1,16699.8 13850.3,16687.2C13850.3,16683 13846.1,16680 13843.7,16678.8C13839.5,16677 13834.1,16674 13829.9,16677C13828.1,16678.2 13825.7,16680 13824.5,16681.8C13819.1,16689 13814.9,16696.8 13813.1,16705.2C13807.1,16726.2 13798.7,16768.8 13792.1,16798.2C13791.5,16801.2 13789.1,16803 13786.1,16803C13751.9,16802.4 13720.7,16810.2 13705.7,16814.4C13654.1,16828.2 13591.7,16860 13535.3,16876.8C13510.7,16884 13491.5,16887.6 13470.5,16876.8C13449.5,16866 13441.1,16837.2 13435.7,16821C13434.5,16816.2 13425.5,16808.4 13417.1,16810.2C13409.3,16812 13407.5,16826.4 13408.7,16834.2C13409.9,16845.6 13421.3,16875.6 13453.7,16894.8C13472.9,16906.2 13500.5,16901.4 13539.5,16889.4C13577.3,16877.4 13621.7,16854.6 13687.7,16831.8C13709.9,16824.6 13755.5,16816.8 13782.5,16822.8C13786.1,16823.4 13787.3,16826.4 13787.3,16829.4C13784.9,16843.2 13780.7,16868.4 13777.1,16885.8C13769.3,16922.4 13763.3,16945.2 13760.3,16981.8C13759.1,16993.8 13756.7,17055.6 13763.3,17072.4C13769.9,17093.4 13783.1,17113.2 13809.5,17116.2Z" style="fill:white;fill-rule:nonzero;"/>
        <path d="M13957.1,17114.4C13995.5,17107.2 14014.7,17052.6 14032.7,17012.4C14033.3,17011.2 14036.3,17005.8 14041.1,17005.8C14042.9,17005.8 14044.7,17007.6 14044.7,17010.6C14045.3,17020.8 14044.7,17031 14044.7,17041.2C14044.7,17048.4 14045.3,17056.2 14045.9,17064C14047.1,17079.6 14054.3,17101.2 14069.9,17107.8C14096.9,17119.2 14130.5,17110.2 14156.3,17070.6C14176.1,17040.6 14199.5,16975.2 14201.3,16970.4C14203.1,16965 14206.1,16959 14206.7,16952.4C14206.7,16950 14204.9,16947.6 14202.5,16947.6C14200.7,16947 14200.1,16947 14198.9,16947.6C14195.3,16951.2 14192.9,16955.4 14191.7,16960.8C14179.7,17003.4 14135.3,17092.2 14102.9,17083.2C14096.9,17081.4 14092.1,17076 14092.1,17067C14092.1,17040 14092.1,17013.6 14092.7,16987.2C14092.7,16963.2 14092.7,16939.2 14090.9,16915.2C14090.9,16909.8 14088.5,16905.6 14086.1,16900.8C14081.9,16895.4 14074.7,16896 14069.9,16900.8C14060.9,16909.2 14062.1,16918.2 14059.1,16936.8C14056.7,16941.6 14054.9,16946.4 14052.5,16950.6C14045.9,16963.8 14038.7,16977.6 14030.9,16990.8C14009.9,17029.8 13996.7,17062.8 13973.3,17080.8C13965.5,17086.8 13950.5,17085 13948.1,17072.4C13939.1,17029.8 13945.1,16957.2 13976.9,16911C13994.9,16885.2 14014.7,16875.6 14033.3,16881.6C14045.9,16884 14023.7,16921.8 14038.7,16921.8C14041.1,16921.8 14042.9,16921.8 14046.5,16918.2C14052.5,16908 14053.7,16901.4 14053.7,16890C14053.7,16877.4 14046.5,16866.6 14034.5,16865.4C14002.1,16860.6 13964.3,16884.6 13943.9,16912.8C13901.3,16971 13890.5,17044.8 13907.9,17089.2C13916.9,17106 13937.9,17118 13957.1,17114.4Z" style="fill:white;fill-rule:nonzero;"/>
        <path d="M14359.1,17032.8C14351.9,17028.6 14345.9,17025.6 14339.9,17023.2C14350.1,16971 14348.3,16911.6 14327.3,16885.2C14316.5,16871.4 14305.1,16863.6 14284.7,16866C14266.7,16867.2 14252.9,16881.6 14245.1,16893.6L14240.9,16900.2C14240.9,16900.2 14237.3,16888.2 14236.1,16885.8C14232.5,16878 14223.5,16873.2 14215.1,16878C14208.5,16882.8 14204.9,16890.6 14203.1,16899C14204.3,16896 14183.3,16996.8 14171.3,17040C14160.5,17076 14141.9,17118 14129.3,17151C14110.7,17200.8 14098.7,17236.2 14093.9,17283C14092.1,17302.2 14089.7,17358.6 14126.3,17358.6C14143.7,17358.6 14161.7,17353.8 14179.1,17319C14206.7,17264.4 14209.1,17179.2 14212.1,17130.6C14212.7,17111.4 14228.9,16952.4 14243.9,16925.4C14252.3,16910.4 14270.3,16887.6 14285.3,16887.6C14304.5,16887.6 14308.7,16904.4 14306.9,16943.4C14305.7,16972.2 14305.1,16982.4 14299.1,17009.4C14298.5,17012.4 14296.7,17016 14293.7,17016.6C14257.1,17022 14227.7,17055 14233.1,17087.4C14237.9,17119.8 14282.3,17121.6 14311.1,17090.4C14323.1,17074.8 14332.7,17055 14336.9,17037C14342.3,17038.8 14347.1,17040.6 14349.5,17043C14355.5,17048.4 14366.9,17037.6 14359.1,17032.8ZM14293.7,17058C14287.1,17076.6 14272.1,17097.6 14253.5,17086.2C14241.5,17079 14253.5,17054.4 14268.5,17041.8C14278.1,17034 14294.3,17029.2 14296.7,17031.6C14297.9,17032.8 14297.3,17047.8 14293.7,17058ZM14156.3,17258.4C14153.9,17277.6 14147.9,17337.6 14126.9,17337.6C14099.3,17337.6 14107.7,17264.4 14117.3,17227.8C14128.1,17186.4 14143.1,17155.2 14163.5,17121L14165.9,17119.8C14167.1,17122.2 14167.7,17124.6 14167.7,17127C14167.7,17161.8 14162.9,17206.2 14156.3,17258.4Z" style="fill:white;fill-rule:nonzero;"/>
        <path d="M14662.1,16966.8C14661.5,16965.6 14660.3,16964.4 14659.1,16964.4C14657.9,16963.8 14655.5,16964.4 14655.5,16965C14649.5,16974 14644.1,16984.8 14637.5,16998.6C14619.5,17036.4 14579.3,17093.4 14560.7,17099.4C14548.1,17103 14539.1,17096.4 14536.1,17083.8C14528.3,17049.6 14542.1,16980 14548.7,16940.4C14548.7,16941.6 14556.5,16885.8 14560.1,16854C14599.7,16857 14642.9,16848 14649.5,16842.6C14656.7,16836.6 14653.7,16828.8 14645.9,16831.2C14638.1,16833.6 14601.5,16839.6 14562.5,16834.2L14564.9,16806L14566.7,16789.2C14569.7,16763.4 14581.7,16704.6 14581.7,16687.8C14581.7,16681.8 14575.1,16678.2 14572.7,16677C14566.1,16674 14556.5,16676.4 14552.9,16681.8C14540.9,16698 14530.1,16734 14525.9,16766.4L14522.3,16786.2C14521.7,16790.4 14519.3,16803.6 14516.9,16819.8C14496.5,16809 14486.3,16794 14482.1,16784.4C14478.5,16774.8 14477.9,16762.8 14480.3,16756.8C14483.3,16749.6 14474.9,16749 14469.5,16749C14456.9,16749 14446.7,16765.2 14450.3,16786.8C14454.5,16809.6 14478.5,16831.2 14513.3,16843.8L14505.5,16893C14495.9,16951.8 14479.1,17029.8 14494.7,17072.4C14509.1,17113.2 14549.9,17127.6 14578.1,17106C14603.3,17086.8 14637.5,17031 14658.5,16980.6C14660.9,16974.6 14662.7,16971.6 14662.1,16966.8Z" style="fill:white;fill-rule:nonzero;"/>
        <path d="M14706.5,17108.4C14728.7,17098.2 14742.5,17065.8 14759.9,17031C14764.1,17022.6 14774.9,16991.4 14781.5,16987.8C14798.9,16984.2 14825.9,16972.2 14851.7,16943.4C14852.3,16942.2 14854.1,16939.8 14853.5,16938C14853.5,16936.2 14854.7,16934.4 14852.3,16933.8C14850.5,16931.4 14846.9,16931.4 14844.5,16933.8C14841.5,16936.2 14839.1,16939.8 14833.1,16944.6C14818.1,16957.2 14804.9,16966.2 14786.9,16968C14785.7,16966.8 14789.3,16951.2 14789.3,16936.2C14789.3,16925.4 14787.5,16915.8 14782.1,16906.8C14780.3,16903.8 14777.9,16900.2 14774.9,16898.4C14770.1,16896 14767.7,16891.8 14764.7,16887.6C14759.9,16879.8 14755.7,16876.2 14746.7,16873.2C14743.1,16872 14733.5,16872 14728.7,16872.6C14712.5,16874.4 14696.3,16882.2 14684.9,16894.2C14651.9,16927.8 14642.9,16963.8 14635.7,16997.4C14632.7,17017.2 14632.1,17055.6 14638.7,17076.6C14647.7,17104.8 14679.5,17121.6 14706.5,17108.4ZM14698.7,17091.6C14686.7,17093.4 14679.5,17064 14678.9,17055.6C14677.7,17039.4 14678.3,16995 14684.3,16964.4C14694.5,16914 14713.7,16889.4 14738.3,16885.8C14746.7,16884.6 14750.3,16897.8 14750.3,16897.8C14730.5,16908 14727.5,16929.6 14729.3,16945.2C14730.5,16960.2 14741.3,16977.6 14758.7,16984.2C14763.5,16986 14761.7,16995 14759.9,16999.2C14749.1,17026.8 14738.9,17046 14728.1,17064.6C14722.1,17075.4 14710.1,17089.8 14698.7,17091.6ZM14770.7,16964.4C14765.9,16965 14758.1,16958.4 14755.7,16954.8C14748.5,16944 14746.1,16938 14749.1,16920C14749.7,16917 14753.3,16910.4 14760.5,16909.2C14766.5,16908 14773.1,16913.4 14774.3,16921.2C14775.5,16926.6 14776.1,16930.8 14776.1,16938C14776.1,16941.6 14774.3,16963.8 14770.7,16964.4Z" style="fill:white;fill-rule:nonzero;"/>
        <path d="M14983.7,17107.8C15010.7,17119.2 15044.3,17110.2 15070.1,17070.6C15089.9,17040.6 15113.3,16975.2 15115.1,16970.4C15116.9,16965 15119.9,16959 15120.5,16952.4C15120.5,16950 15118.7,16947.6 15116.3,16947.6C15114.5,16947 15113.9,16947 15112.7,16947.6C15109.1,16951.2 15106.7,16955.4 15105.5,16960.8C15093.5,17003.4 15046.1,17100 15016.7,17083.2C15004.1,17076 15005.9,17061.6 15011.3,17026.2C15018.5,16981.8 15020.3,16962 15022.7,16895.4C15022.7,16889.4 15019.1,16883.4 15014.9,16879.8C15011.3,16876.2 14998.1,16877.4 14995.1,16882.8C14992.1,16888.2 14987.3,16895.4 14983.7,16900.8C14969.3,16921.2 14956.7,16953.6 14951.3,16963.2C14936.9,16989 14917.7,17024.4 14908.1,17042.4C14896.1,17064 14889.5,17074.8 14878.1,17080.8C14875.1,17082.6 14873.3,17082.6 14870.3,17079.6C14866.1,17072.4 14869.7,17038.8 14873.3,17019.6C14878.7,16993.8 14888.9,16944.6 14891.3,16909.2C14891.9,16902.6 14890.1,16887 14887.1,16879.2C14882.3,16871.4 14876.9,16872 14868.5,16873.8C14860.1,16875.6 14857.1,16881.6 14855.9,16885.2C14849.3,16902 14840.3,16941.6 14837.3,16957.8C14830.1,16994.4 14817.5,17043.6 14818.1,17088.6C14818.1,17100.6 14833.1,17115 14858.9,17109.6C14864.3,17108.4 14879.3,17104.2 14889.5,17094C14900.9,17083.8 14909.9,17070 14920.1,17049.6C14926.1,17037 14929.7,17030.4 14936.9,17016.6C14944.7,17003.4 14954.9,16981.8 14965.1,16969.2C14966.9,16966.8 14969.3,16966.2 14970.5,16966.8C14972.3,16967.4 14972.3,16969.8 14972.3,16971.6C14972.3,17022 14958.5,17052.6 14963.3,17076C14965.1,17086.2 14969.9,17101.2 14983.7,17107.8Z" style="fill:white;fill-rule:nonzero;"/>
        <path d="M15287.9,16953C15286.1,16952.4 15285.5,16952.4 15284.3,16953C15280.7,16956.6 15279.5,16960.8 15277.1,16966.2C15243.5,17044.8 15215.9,17094 15181.7,17083.8C15163.1,17078.4 15168.5,17053.8 15178.1,17026.2C15185.9,17010 15204.5,16959.6 15200.3,16939.2C15199.1,16932.6 15191.9,16927.2 15185.3,16927.2C15170.9,16927.2 15155.9,16928.4 15146.3,16912.2C15139.1,16901.4 15151.7,16886.4 15157.1,16876.8C15167.3,16857.6 15173.3,16845 15176.3,16828.8C15184.1,16785 15151.1,16774.8 15127.1,16787.4C15094.7,16804.2 15086.3,16878.6 15100.1,16903.2C15104.9,16912.2 15110.3,16920 15116.9,16926C15110.9,16942.2 15101.9,16968 15089.3,16998C15087.5,17002.8 15088.1,17007 15091.1,17008.8C15094.1,17010 15098.3,17007.6 15101.3,17001.6C15113.9,16973.4 15122.9,16950 15127.1,16934.4C15133.1,16938 15140.3,16940.4 15148.7,16942.2C15155.3,16943.4 15160.7,16949.4 15156.5,16957.8L15145.1,16982.4C15130.7,17009.4 15117.5,17046 15125.9,17076C15132.5,17099.4 15158.9,17108.4 15175.1,17109C15205.7,17110.2 15223.1,17094 15240.5,17068.2C15256.7,17044.8 15284.9,16980.6 15286.7,16975.8C15288.5,16970.4 15291.5,16964.4 15292.1,16957.8C15292.1,16955.4 15290.3,16953 15287.9,16953ZM15136.1,16880.4C15129.5,16881 15128.3,16867.2 15127.1,16852.8C15124.7,16828.8 15131.9,16794 15154.7,16797.6C15158.9,16798.8 15164.3,16804.2 15165.5,16807.8C15166.7,16815.6 15166.7,16823.4 15163.7,16830C15158.9,16846.2 15149.3,16872 15136.1,16880.4Z" style="fill:white;fill-rule:nonzero;"/>
        <path d="M15338.9,16812C15343.1,16809.6 15349.7,16802.4 15349.7,16794.6C15349.7,16784.4 15344.3,16780.2 15339.5,16776.6C15329.9,16773 15321.5,16774.8 15318.5,16776C15313.1,16777.8 15305.9,16783.2 15304.1,16788.6C15301.7,16792.8 15301.1,16802.4 15308.3,16809C15315.5,16815.6 15329.3,16817.4 15338.9,16812ZM15316.1,17112.6C15359.9,17104.8 15389.9,17041.2 15407.9,16995C15410.9,16987.2 15413.3,16983 15415.7,16976.4C15416.9,16972.8 15416.9,16968.6 15413.3,16967.4C15411.5,16966.8 15407.9,16966.8 15405.5,16972.8C15393.5,17004 15368.3,17050.8 15358.1,17063.4C15343.1,17082 15332.3,17091 15320.9,17091C15314.9,17091 15302.3,17086.8 15303.5,17068.8C15304.1,17059.8 15311.9,17014.8 15317.9,16982.4C15322.7,16956 15330.5,16916.4 15330.5,16891.8C15330.5,16876.2 15316.1,16868.4 15301.7,16875C15298.7,16876.2 15295.1,16884 15293.9,16887C15289.1,16908.6 15280.1,16954.8 15271.7,16990.8C15268.7,17004 15263.9,17030.4 15261.5,17043.6C15251.9,17095.8 15272.9,17120.4 15316.1,17112.6Z" style="fill:white;fill-rule:nonzero;"/>
        <path d="M15598.1,16909.2C15596.3,16905 15591.5,16905.6 15589.7,16908.6C15571.7,16929.6 15541.1,16956.6 15531.5,16963.8C15522.5,16970.4 15513.5,16975.8 15503.9,16981.8C15503.3,16982.4 15501.5,16983.6 15500.3,16983C15498.5,16982.4 15497.9,16981.2 15497.3,16980.6C15485.3,16968 15465.5,16929 15455.9,16911C15454.1,16908 15454.1,16903.8 15456.5,16900.2C15474.5,16875.6 15485.3,16865.4 15491.9,16839C15494.3,16830 15498.5,16815 15484.7,16803.6C15473.9,16794.6 15459.5,16795.8 15442.7,16805.4C15421.1,16818 15404.3,16844.4 15404.3,16867.2C15404.3,16888.2 15407.3,16897.8 15414.5,16915.8L15419.9,16927.8C15418.7,16932.6 15418.1,16936.8 15416.3,16942.8L15400.7,16984.8C15400.7,16987.8 15398.3,16990.2 15401.9,16992.6C15407.3,16995.6 15410.3,16990.2 15412.1,16986.6C15416.3,16976.4 15424.7,16957.8 15429.5,16945.2C15443.9,16969.2 15457.7,16985.4 15461.9,16995C15463.7,16998.6 15464.9,17002.2 15464.9,17005.8C15464.9,17009.4 15464.3,17013 15461.3,17016.6C15458.3,17019.6 15454.1,17023.8 15450.5,17026.2C15439.1,17034.6 15428.9,17044.2 15418.7,17053.8C15405.5,17067 15389.9,17089.8 15391.1,17101.8C15391.7,17111.4 15398.3,17121 15410.3,17127C15419.9,17131.8 15436.7,17133.6 15446.9,17130C15469.1,17122.8 15478.7,17116.2 15491.9,17098.2C15508.1,17077.2 15518.3,17053.8 15513.5,17018.4C15512.9,17013.6 15511.1,17008.8 15509.9,17003.4C15509.9,17001 15510.5,16998.6 15511.7,16996.8C15514.7,16990.8 15521.3,16987.2 15526.1,16983.6C15537.5,16975.8 15569.3,16946.4 15590.9,16924.8C15594.5,16920.6 15597.5,16917.6 15599.3,16912.2C15599.3,16911 15599.3,16909.8 15598.1,16909.2ZM15445.7,16888.2C15440.9,16887 15434.3,16870.8 15437.3,16857C15441.5,16839 15458.9,16803.6 15476.9,16813.2C15484.7,16817.4 15482.3,16824.6 15478.7,16840.8C15472.7,16866 15452.3,16890 15445.7,16888.2ZM15467.9,17099.4C15462.5,17109 15452.9,17116.8 15439.7,17119.8C15427.1,17123.4 15418.1,17120.4 15410.3,17113.8C15404.9,17109 15404.3,17100.6 15410.9,17084.4C15418.7,17064.6 15437.3,17050.8 15455.3,17035.8C15458.9,17032.8 15465.5,17026.8 15468.5,17028C15471.5,17029.2 15473.3,17033.4 15474.5,17041.8C15477.5,17063.4 15479.3,17077.8 15467.9,17099.4Z" style="fill:white;fill-rule:nonzero;"/>
        <path d="M15936.5,16948.8C15920.3,16932 15898.1,16932.6 15871.1,16939.8C15835.7,16948.8 15782.9,17013 15739.7,17042.4C15697.7,17071.8 15637.1,17110.2 15616.7,17092.2C15589.1,17075.4 15613.1,16981.2 15619.1,16940.4C15623.9,16910.4 15628.1,16879.2 15631.1,16854C15670.1,16857 15713.3,16848 15719.9,16842.6C15727.1,16836.6 15724.1,16828.8 15716.3,16831.2C15708.5,16833.6 15672.5,16839.6 15633.5,16834.2L15637.1,16809.6C15638.3,16776.6 15652.1,16704.6 15652.1,16687.8C15652.1,16681.8 15645.5,16678.2 15643.1,16677C15636.5,16674 15626.9,16676.4 15623.3,16681.8C15611.3,16698 15600.5,16750.2 15596.3,16782.6L15590.3,16821.6C15568.1,16810.2 15556.7,16794.6 15552.5,16784.4C15548.9,16774.8 15548.3,16762.8 15550.7,16756.8C15553.7,16749.6 15545.3,16749 15539.9,16749C15527.3,16749 15517.1,16765.2 15520.7,16786.8C15524.9,16810.2 15550.1,16832.4 15586.1,16844.4C15583.1,16861.8 15580.7,16878 15578.9,16885.8C15571.1,16922.4 15565.1,16945.2 15562.1,16981.8C15560.9,16993.8 15558.5,17055.6 15565.1,17072.4C15591.5,17160 15680.3,17106.6 15704.3,17091C15800.9,17029.2 15846.5,16966.2 15874.7,16956.6C15893.3,16949.4 15905.3,16954.2 15908.9,16964.4C15913.7,16977.6 15923.3,17000.4 15936.5,16998C15952.7,16998 15950.3,16962.6 15936.5,16948.8Z" style="fill:white;fill-rule:nonzero;"/>
    </g>
    <g transform="matrix(0.872096,0,0,0.632216,-26557.9,-894.157)">
        <g transform="matrix(1.14666,0,0,1.58174,-4466.25,-2903.7)">
            <path d="M30985.4,5295.04C30982.4,5293.24 30975.8,5296.24 30974,5301.64C30966.8,5316.04 30947,5348.44 30932,5356.84C30924.8,5361.04 30918.2,5364.04 30917,5362.84C30917,5362.84 30917,5356.24 30917.6,5350.24C30920,5315.44 30923,5274.04 30900.8,5245.84C30890,5232.04 30878.6,5224.24 30858.2,5226.64C30840.2,5227.84 30826.4,5242.24 30818.6,5254.24L30814.4,5260.84C30814.4,5260.84 30810.8,5248.84 30809.6,5246.44C30806.6,5240.44 30801.2,5236.24 30794.6,5236.84C30782,5235.64 30765.2,5237.44 30750.2,5240.44C30698,5250.64 30636.2,5286.04 30579.8,5302.84C30555.2,5310.04 30536,5313.64 30515,5302.84C30494,5292.04 30485.6,5263.24 30480.2,5247.04C30479,5242.24 30470,5234.44 30461.6,5236.24C30453.8,5238.04 30452,5252.44 30453.2,5260.24C30454.4,5271.64 30465.8,5301.64 30498.2,5320.84C30517.4,5332.24 30545,5327.44 30584,5315.44C30621.8,5303.44 30666.2,5280.64 30732.2,5257.84C30749.6,5251.84 30766.4,5247.04 30776.6,5259.64C30776.6,5263.84 30756.2,5358.64 30744.8,5400.64C30734,5436.64 30715.4,5478.64 30702.8,5511.64C30684.2,5561.44 30672.2,5596.84 30667.4,5643.64C30665.6,5662.84 30663.2,5719.24 30699.8,5719.24C30717.2,5719.24 30735.2,5714.44 30752.6,5679.64C30780.2,5625.04 30782.6,5539.84 30785.6,5491.24C30786.2,5472.04 30802.4,5313.04 30817.4,5286.04C30825.8,5271.04 30843.8,5248.24 30858.8,5248.24C30878,5248.24 30882.2,5265.04 30880.4,5304.04C30879.2,5332.84 30876.2,5343.04 30870.2,5370.04C30869.6,5373.04 30867.2,5374.84 30864.8,5377.24C30842.6,5390.44 30801.2,5415.64 30806.6,5448.04C30811.4,5480.44 30855.8,5482.24 30884.6,5451.04C30896.6,5435.44 30903.2,5414.44 30910.4,5397.64C30911,5394.64 30913.4,5387.44 30917.6,5385.04C30921.8,5382.04 30932,5376.04 30942.8,5364.64C30970.4,5336.44 30980,5316.64 30983.6,5310.04C30986,5307.64 30990.8,5297.44 30985.4,5295.04ZM30793.4,5294.44L30793.4,5295.04L30793.4,5294.44ZM30867.2,5418.64C30860.6,5437.24 30845.6,5458.24 30827,5446.84C30815,5439.64 30827,5421.04 30842,5408.44C30851.6,5400.64 30867.8,5389.84 30870.2,5392.24C30871.4,5393.44 30870.8,5408.44 30867.2,5418.64ZM30729.8,5619.04C30727.4,5638.24 30721.4,5698.24 30700.4,5698.24C30672.8,5698.24 30681.2,5625.04 30690.8,5588.44C30701.6,5547.04 30716.6,5515.84 30737,5481.64L30739.4,5480.44C30740.6,5482.84 30741.2,5485.24 30741.2,5487.64C30741.2,5522.44 30736.4,5566.84 30729.8,5619.04Z" style="fill:white;fill-rule:nonzero;"/>
        </g>
        <g transform="matrix(1.14666,0,0,1.58174,-4466.25,-2903.7)">
            <path d="M31024.4,5469.04C31046.6,5458.84 31060.4,5426.44 31077.8,5391.64C31082,5383.24 31092.8,5352.04 31099.4,5348.44C31116.8,5344.84 31143.8,5332.84 31169.6,5304.04C31170.2,5302.84 31172,5300.44 31171.4,5298.64C31171.4,5296.84 31172.6,5295.04 31170.2,5294.44C31168.4,5292.04 31164.8,5292.04 31162.4,5294.44C31159.4,5296.84 31157,5300.44 31151,5305.24C31136,5317.84 31122.8,5326.84 31104.8,5328.64C31103.6,5327.44 31107.2,5311.84 31107.2,5296.84C31107.2,5286.04 31105.4,5276.44 31100,5267.44C31098.2,5264.44 31095.8,5260.84 31092.8,5259.04C31088,5256.64 31085.6,5252.44 31082.6,5248.24C31077.8,5240.44 31073.6,5236.84 31064.6,5233.84C31061,5232.64 31051.4,5232.64 31046.6,5233.24C31030.4,5235.04 31014.2,5242.84 31002.8,5254.84C30969.8,5288.44 30960.8,5324.44 30953.6,5358.04C30950.6,5377.84 30950,5416.24 30956.6,5437.24C30965.6,5465.44 30997.4,5482.24 31024.4,5469.04ZM31016.6,5452.24C31004.6,5454.04 30997.4,5424.64 30996.8,5416.24C30995.6,5400.04 30996.2,5355.64 31002.2,5325.04C31012.4,5274.64 31031.6,5250.04 31056.2,5246.44C31064.6,5245.24 31068.2,5258.44 31068.2,5258.44C31048.4,5268.64 31045.4,5290.24 31047.2,5305.84C31048.4,5320.84 31059.2,5338.24 31076.6,5344.84C31081.4,5346.64 31079.6,5355.64 31077.8,5359.84C31067,5387.44 31056.8,5406.64 31046,5425.24C31040,5436.04 31028,5450.44 31016.6,5452.24ZM31088.6,5325.04C31083.8,5325.64 31076,5319.04 31073.6,5315.44C31066.4,5304.64 31064,5298.64 31067,5280.64C31067.6,5277.64 31071.2,5271.04 31078.4,5269.84C31084.4,5268.64 31091,5274.04 31092.2,5281.84C31093.4,5287.24 31094,5291.44 31094,5298.64C31094,5302.24 31092.2,5324.44 31088.6,5325.04Z" style="fill:white;fill-rule:nonzero;"/>
        </g>
        <g transform="matrix(1.14666,0,0,1.58174,-4466.25,-2903.7)">
            <path d="M31301.6,5468.44C31328.6,5479.84 31362.2,5470.84 31388,5431.24C31407.8,5401.24 31431.2,5335.84 31433,5331.04C31434.8,5325.64 31437.8,5319.64 31438.4,5313.04C31438.4,5310.64 31436.6,5308.24 31434.2,5308.24C31432.4,5307.64 31431.8,5307.64 31430.6,5308.24C31427,5311.84 31424.6,5316.04 31423.4,5321.44C31411.4,5364.04 31364,5460.64 31334.6,5443.84C31322,5436.64 31323.8,5422.24 31329.2,5386.84C31336.4,5342.44 31338.2,5322.64 31340.6,5256.04C31340.6,5250.04 31337,5244.04 31332.8,5240.44C31329.2,5236.84 31316,5238.04 31313,5243.44C31310,5248.84 31305.2,5256.04 31301.6,5261.44C31287.2,5281.84 31274.6,5314.24 31269.2,5323.84C31254.8,5349.64 31235.6,5385.04 31226,5403.04C31214,5424.64 31207.4,5435.44 31196,5441.44C31193,5443.24 31191.2,5443.24 31188.2,5440.24C31184,5433.04 31187.6,5399.44 31191.2,5380.24C31196.6,5354.44 31206.8,5305.24 31209.2,5269.84C31209.8,5263.24 31208,5247.64 31205,5239.84C31200.2,5232.04 31194.8,5232.64 31186.4,5234.44C31178,5236.24 31175,5242.24 31173.8,5245.84C31167.2,5262.64 31158.2,5302.24 31155.2,5318.44C31148,5355.04 31135.4,5404.24 31136,5449.24C31136,5461.24 31151,5475.64 31176.8,5470.24C31182.2,5469.04 31197.2,5464.84 31207.4,5454.64C31218.8,5444.44 31227.8,5430.64 31238,5410.24C31244,5397.64 31247.6,5391.04 31254.8,5377.24C31262.6,5364.04 31272.8,5342.44 31283,5329.84C31284.8,5327.44 31287.2,5326.84 31288.4,5327.44C31290.2,5328.04 31290.2,5330.44 31290.2,5332.24C31290.2,5382.64 31276.4,5413.24 31281.2,5436.64C31283,5446.84 31287.8,5461.84 31301.6,5468.44Z" style="fill:white;fill-rule:nonzero;"/>
        </g>
        <g transform="matrix(1.14666,0,0,1.58174,-4466.25,-2903.7)">
            <path d="M31605.8,5313.64C31604,5313.04 31603.4,5313.04 31602.2,5313.64C31598.6,5317.24 31597.4,5321.44 31595,5326.84C31561.4,5405.44 31533.8,5454.64 31499.6,5444.44C31481,5439.04 31486.4,5414.44 31496,5386.84C31503.8,5370.64 31522.4,5320.24 31518.2,5299.84C31517,5293.24 31509.8,5287.84 31503.2,5287.84C31488.8,5287.84 31473.8,5289.04 31464.2,5272.84C31457,5262.04 31469.6,5247.04 31475,5237.44C31485.2,5218.24 31491.2,5205.64 31494.2,5189.44C31502,5145.64 31469,5135.44 31445,5148.04C31412.6,5164.84 31404.2,5239.24 31418,5263.84C31422.8,5272.84 31428.2,5280.64 31434.8,5286.64C31428.8,5302.84 31419.8,5328.64 31407.2,5358.64C31405.4,5363.44 31406,5367.64 31409,5369.44C31412,5370.64 31416.2,5368.24 31419.2,5362.24C31431.8,5334.04 31440.8,5310.64 31445,5295.04C31451,5298.64 31458.2,5301.04 31466.6,5302.84C31473.2,5304.04 31478.6,5310.04 31474.4,5318.44L31463,5343.04C31448.6,5370.04 31435.4,5406.64 31443.8,5436.64C31450.4,5460.04 31476.8,5469.04 31493,5469.64C31523.6,5470.84 31541,5454.64 31558.4,5428.84C31574.6,5405.44 31602.8,5341.24 31604.6,5336.44C31606.4,5331.04 31609.4,5325.04 31610,5318.44C31610,5316.04 31608.2,5313.64 31605.8,5313.64ZM31454,5241.04C31447.4,5241.64 31446.2,5227.84 31445,5213.44C31442.6,5189.44 31449.8,5154.64 31472.6,5158.24C31476.8,5159.44 31482.2,5164.84 31483.4,5168.44C31484.6,5176.24 31484.6,5184.04 31481.6,5190.64C31476.8,5206.84 31467.2,5232.64 31454,5241.04Z" style="fill:white;fill-rule:nonzero;"/>
        </g>
        <g transform="matrix(1.14666,0,0,1.58174,-4466.25,-2903.7)">
            <path d="M31665.8,5172.64C31670,5170.24 31676.6,5163.04 31676.6,5155.24C31676.6,5145.04 31671.2,5140.84 31666.4,5137.24C31656.8,5133.64 31648.4,5135.44 31645.4,5136.64C31640,5138.44 31632.8,5143.84 31631,5149.24C31628.6,5153.44 31628,5163.04 31635.2,5169.64C31642.4,5176.24 31656.2,5178.04 31665.8,5172.64ZM31643,5473.24C31686.8,5465.44 31716.8,5401.84 31734.8,5355.64C31737.8,5347.84 31740.2,5343.64 31742.6,5337.04C31743.8,5333.44 31743.8,5329.24 31740.2,5328.04C31738.4,5327.44 31734.8,5327.44 31732.4,5333.44C31720.4,5364.64 31695.2,5411.44 31685,5424.04C31670,5442.64 31659.2,5451.64 31647.8,5451.64C31641.8,5451.64 31629.2,5447.44 31630.4,5429.44C31631,5420.44 31638.8,5375.44 31644.8,5343.04C31649.6,5316.64 31657.4,5277.04 31657.4,5252.44C31657.4,5236.84 31643,5229.04 31628.6,5235.64C31625.6,5236.84 31622,5244.64 31620.8,5247.64C31616,5269.24 31607,5315.44 31598.6,5351.44C31595.6,5364.64 31590.8,5391.04 31588.4,5404.24C31578.8,5456.44 31599.8,5481.04 31643,5473.24Z" style="fill:white;fill-rule:nonzero;"/>
        </g>
        <g transform="matrix(1.14666,0,0,1.58174,-4466.25,-2903.7)">
            <path d="M31908.2,5473.84C31923.2,5476.84 31946,5459.44 31955.6,5448.04C31966.4,5435.44 31981.4,5401.84 31987.4,5387.44C31992.8,5374.84 32001.2,5343.64 32006.6,5325.04C32007.2,5323.84 32006,5322.64 32006,5321.44C32006,5320.24 32006,5319.04 32004.8,5317.84C32002.4,5315.44 31998.8,5316.64 31997.6,5319.04C31990.4,5336.44 31976.6,5380.24 31968.2,5395.24C31960.4,5409.04 31938.2,5453.44 31919,5450.44C31910,5449.24 31907,5433.64 31909.4,5403.64C31911.8,5379.64 31919.6,5348.44 31922.6,5325.64C31924.4,5307.04 31927.4,5273.44 31922,5262.64C31916,5250.64 31902.8,5238.04 31889.6,5241.64C31862.6,5249.44 31854.8,5257.84 31835.6,5280.64C31823.6,5292.64 31814.6,5311.24 31801.4,5322.04C31794.8,5328.64 31791.2,5326.24 31791.2,5313.64C31791.2,5289.64 31792.4,5273.44 31792.4,5246.44C31792.4,5241.04 31788.8,5231.44 31771.4,5230.24C31765.4,5229.64 31755.8,5232.04 31753.4,5245.24C31746.8,5278.24 31743.8,5310.64 31736,5374.84C31733.6,5396.44 31727.6,5419.24 31724.6,5444.44C31723.4,5457.64 31721,5462.44 31728.8,5472.04C31734.8,5479.84 31752.2,5481.04 31757,5472.64C31761.8,5466.04 31764.2,5459.44 31766,5451.04C31767.2,5446.24 31773.8,5418.04 31775.6,5414.44C31779.8,5403.04 31785.2,5385.64 31791.2,5374.84C31802,5356.84 31821.8,5320.24 31835,5304.64C31843.4,5293.84 31857.8,5278.24 31871.6,5267.44C31879.4,5263.84 31888.4,5266.84 31888.4,5277.64C31889.6,5283.04 31882.4,5316.04 31879.4,5326.24C31864.4,5382.04 31862.6,5406.64 31868.6,5436.04C31874,5463.04 31892,5470.84 31908.2,5473.84Z" style="fill:white;fill-rule:nonzero;"/>
        </g>
        <g transform="matrix(1.14666,0,0,1.58174,-4466.25,-2903.7)">
            <path d="M32510,5341.24C32508.2,5336.44 32505.8,5328.04 32502.8,5323.84C32492,5307.64 32465.6,5302.24 32441,5302.24C32436.2,5302.24 32432,5302.24 32427.2,5302.84C32391.2,5305.84 32292.8,5341.24 32246,5362.84C32199.2,5385.04 32159.6,5415.04 32153.6,5415.04C32152.4,5414.44 32152.4,5409.64 32152.4,5401.84C32152.4,5372.44 32157.8,5304.04 32157.8,5286.04C32157.8,5281.24 32154.8,5279.44 32150.6,5279.44C32146.4,5279.44 32139.8,5282.44 32135,5287.24C32126,5295.04 32125.4,5317.84 32121.2,5340.64C32121.2,5347.24 32110.4,5365.84 32100.2,5380.84C32087.6,5400.04 32077.4,5417.44 32063.6,5428.84C32054.6,5436.04 32045,5445.04 32037.2,5445.04C32034.8,5445.04 32032.4,5443.84 32030.6,5442.04C32027.6,5439.64 32025.2,5436.64 32024.6,5433.04C32024,5428.24 32023.4,5424.04 32023.4,5419.24C32023.4,5410.24 32024.6,5401.24 32026.4,5391.64C32032.4,5355.64 32043.2,5322.04 32059.4,5287.84C32063.6,5279.44 32069,5272.84 32075.6,5266.24C32081.6,5260.24 32088.8,5254.84 32097.2,5251.84C32101.4,5250.04 32105.6,5249.44 32110.4,5249.44C32114.6,5249.44 32118.8,5251.24 32121.2,5255.44L32127.2,5265.04C32127.8,5265.64 32129,5266.24 32130.2,5266.84C32132.6,5268.04 32135,5266.84 32135.6,5263.84C32137.4,5255.44 32132.6,5249.44 32127.8,5243.44C32123.6,5236.84 32117.6,5233.84 32110.4,5233.84C32100.8,5233.84 32091.8,5238.04 32083.4,5242.24C32041.4,5265.04 32019.8,5293.24 32007.2,5318.44C31991,5350.24 31979,5382.64 31979,5412.04C31979,5442.64 31980.8,5450.44 31998.8,5464.84C32003.6,5468.44 32011.4,5470.24 32019.8,5470.24C32030,5470.24 32042,5467.24 32050.4,5460.64C32069,5446.24 32093,5416.84 32104.4,5398.24C32106.2,5395.84 32108.6,5395.84 32110.4,5397.04C32111.6,5397.64 32112.2,5400.04 32112.2,5403.64C32112.2,5411.44 32110.4,5423.44 32110.4,5434.24C32110.4,5440.84 32106.2,5467.84 32106.2,5467.84C32097.2,5485.24 32076.2,5509.24 32059.4,5533.84C32033.6,5571.64 32007.2,5634.04 32007.2,5676.04C32007.2,5695.84 32013.2,5710.84 32027,5717.44C32031.8,5719.24 32036.6,5720.44 32042,5720.44C32052.2,5720.44 32063.6,5716.84 32074.4,5709.04C32096.6,5693.44 32116.4,5649.64 32133.2,5588.44C32144,5549.44 32154.8,5470.84 32157.8,5442.04C32160.8,5439.04 32213.6,5397.64 32250.8,5380.84C32350.4,5335.84 32412.2,5326.24 32441.6,5320.84C32445.2,5320.24 32448.2,5320.24 32451.2,5320.24C32466.8,5320.24 32479.4,5326.84 32480.6,5335.84L32481.2,5341.84C32481.2,5348.44 32480,5355.64 32482.4,5362.24C32484.2,5368.84 32489,5373.04 32496.8,5373.04C32501,5373.04 32505.2,5370.04 32508.2,5366.44C32511.2,5362.24 32512.4,5356.84 32512.4,5352.04C32512.4,5348.44 32511.8,5344.84 32510,5341.24ZM32105,5529.04C32094.2,5583.64 32079.8,5637.04 32065.4,5676.04C32059.4,5692.84 32051,5705.44 32039.6,5705.44C32036.6,5705.44 32033.6,5704.24 32030,5702.44C32023.4,5698.84 32021,5689.84 32021,5677.24C32021,5648.44 32035.4,5602.84 32052.2,5572.84C32054.6,5568.64 32103.2,5488.84 32107.4,5491.24C32109.2,5491.24 32109.8,5493.04 32109.8,5497.24C32109.8,5502.64 32108.6,5512.24 32105,5529.04Z" style="fill:white;fill-rule:nonzero;"/>
        </g>
        <g transform="matrix(1.14666,0,0,1.58174,-4466.25,-2903.7)">
            <path d="M33165.8,5252.44C33164,5248.24 33159.2,5248.84 33157.4,5251.84C33139.4,5272.84 33095,5314.24 33085.4,5321.44C33076.4,5328.04 33067.4,5336.44 33057.8,5342.44C33057.2,5343.04 33055.4,5344.24 33054.2,5343.64C33052.4,5343.04 33051.8,5341.84 33051.2,5341.24C33039.2,5328.64 33021.8,5300.44 33012.2,5282.44C33010.4,5279.44 33010.4,5275.24 33012.8,5271.64C33030.8,5247.04 33041.6,5236.84 33048.2,5210.44C33050.6,5201.44 33052.4,5175.64 33038.6,5164.24C33027.8,5155.24 33013.4,5156.44 32996.6,5166.04C32975,5178.64 32958.2,5205.04 32958.2,5227.84C32958.2,5248.84 32961.2,5258.44 32968.4,5276.44C32970.2,5281.24 32972.6,5286.04 32975,5290.24C32973.8,5291.44 32972.6,5292.64 32971.4,5293.84L32942,5315.44C32930,5325.64 32916.2,5332.24 32901.8,5338.24C32874.2,5349.04 32842.4,5356.84 32808.2,5350.24C32790.8,5346.64 32768,5340.64 32757.2,5326.84C32718.2,5277.04 32736.8,5245.84 32729.6,5214.04C32727.2,5204.44 32726,5195.44 32714.6,5195.44C32709.2,5195.44 32705.6,5198.44 32703.2,5202.04C32698.4,5207.44 32696,5215.24 32694.2,5222.44C32690.6,5237.44 32692.4,5268.04 32701.4,5289.64C32715.2,5322.64 32733.2,5347.84 32793.8,5365.84C32840,5379.04 32892.2,5359.24 32930,5342.44C32937.8,5338.84 32967.8,5313.64 32982.2,5303.44C32996.6,5328.64 33011.6,5345.44 33015.8,5355.64C33017.6,5359.24 33018.8,5362.84 33018.8,5366.44C33018.8,5370.04 33018.2,5373.64 33015.2,5377.24C33012.2,5380.24 33008,5384.44 33004.4,5386.84C32993,5395.24 32982.8,5404.84 32972.6,5414.44C32959.4,5427.64 32943.8,5450.44 32945,5462.44C32945.6,5472.04 32952.2,5481.64 32964.2,5487.64C32973.8,5492.44 32990.6,5494.24 33000.8,5490.64C33023,5483.44 33032.6,5476.84 33045.8,5458.84C33062,5438.44 33072.2,5414.44 33067.4,5379.04C33066.8,5374.24 33065,5369.44 33063.8,5364.04C33063.8,5361.64 33064.4,5359.24 33065.6,5357.44C33068.6,5351.44 33075.2,5344.84 33080,5341.24C33091.4,5333.44 33137,5289.64 33158.6,5268.04C33162.2,5263.84 33165.2,5260.84 33167,5255.44C33167,5254.24 33167,5253.04 33165.8,5252.44ZM33004.4,5256.04C32999.6,5254.84 32995.4,5244.64 32996.6,5221.84C32997.8,5196.64 33009.2,5166.64 33030.8,5173.84C33035,5175.04 33038.6,5184.64 33038.6,5193.04C33038.6,5222.44 33011,5257.84 33004.4,5256.04ZM33021.8,5460.04C33016.4,5469.64 33006.8,5477.44 32993.6,5480.44C32981,5484.04 32972,5481.04 32964.2,5474.44C32958.8,5469.64 32958.2,5461.24 32964.8,5445.04C32972.6,5425.24 32991.2,5411.44 33009.2,5396.44C33012.8,5393.44 33019.4,5387.44 33022.4,5388.64C33025.4,5389.84 33027.2,5394.04 33028.4,5402.44C33031.4,5424.04 33033.2,5438.44 33021.8,5460.04Z" style="fill:white;fill-rule:nonzero;"/>
        </g>
        <g transform="matrix(1.14666,0,0,1.58174,-4466.25,-2903.7)">
            <path d="M33170,5469.04C33192.2,5458.84 33206,5426.44 33223.4,5391.64C33227.6,5383.24 33238.4,5352.04 33245,5348.44C33262.4,5344.84 33289.4,5332.84 33315.2,5304.04C33315.8,5302.84 33317.6,5300.44 33317,5298.64C33317,5296.84 33318.2,5295.04 33315.8,5294.44C33314,5292.04 33310.4,5292.04 33308,5294.44C33305,5296.84 33302.6,5300.44 33296.6,5305.24C33281.6,5317.84 33268.4,5326.84 33250.4,5328.64C33249.2,5327.44 33252.8,5311.84 33252.8,5296.84C33252.8,5286.04 33251,5276.44 33245.6,5267.44C33243.8,5264.44 33241.4,5260.84 33238.4,5259.04C33233.6,5256.64 33231.2,5252.44 33228.2,5248.24C33223.4,5240.44 33219.2,5236.84 33210.2,5233.84C33206.6,5232.64 33197,5232.64 33192.2,5233.24C33176,5235.04 33159.8,5242.84 33148.4,5254.84C33115.4,5288.44 33106.4,5324.44 33099.2,5358.04C33096.2,5377.84 33095.6,5416.24 33102.2,5437.24C33111.2,5465.44 33143,5482.24 33170,5469.04ZM33162.2,5452.24C33150.2,5454.04 33143,5424.64 33142.4,5416.24C33141.2,5400.04 33141.8,5355.64 33147.8,5325.04C33158,5274.64 33177.2,5250.04 33201.8,5246.44C33210.2,5245.24 33213.8,5258.44 33213.8,5258.44C33194,5268.64 33191,5290.24 33192.8,5305.84C33194,5320.84 33204.8,5338.24 33222.2,5344.84C33227,5346.64 33225.2,5355.64 33223.4,5359.84C33212.6,5387.44 33202.4,5406.64 33191.6,5425.24C33185.6,5436.04 33173.6,5450.44 33162.2,5452.24ZM33234.2,5325.04C33229.4,5325.64 33221.6,5319.04 33219.2,5315.44C33212,5304.64 33209.6,5298.64 33212.6,5280.64C33213.2,5277.64 33216.8,5271.04 33224,5269.84C33230,5268.64 33236.6,5274.04 33237.8,5281.84C33239,5287.24 33239.6,5291.44 33239.6,5298.64C33239.6,5302.24 33237.8,5324.44 33234.2,5325.04Z" style="fill:white;fill-rule:nonzero;"/>
        </g>
        <g transform="matrix(1.14666,0,0,1.58174,-4466.25,-2903.7)">
            <path d="M33354.2,5469.04C33376.4,5458.84 33390.2,5426.44 33407.6,5391.64C33411.8,5383.24 33422.6,5352.04 33429.2,5348.44C33446.6,5344.84 33473.6,5332.84 33499.4,5304.04C33500,5302.84 33501.8,5300.44 33501.2,5298.64C33501.2,5296.84 33502.4,5295.04 33500,5294.44C33498.2,5292.04 33494.6,5292.04 33492.2,5294.44C33489.2,5296.84 33486.8,5300.44 33480.8,5305.24C33465.8,5317.84 33452.6,5326.84 33434.6,5328.64C33433.4,5327.44 33437,5311.84 33437,5296.84C33437,5286.04 33435.2,5276.44 33429.8,5267.44C33428,5264.44 33425.6,5260.84 33422.6,5259.04C33417.8,5256.64 33415.4,5252.44 33412.4,5248.24C33407.6,5240.44 33403.4,5236.84 33394.4,5233.84C33390.8,5232.64 33381.2,5232.64 33376.4,5233.24C33360.2,5235.04 33344,5242.84 33332.6,5254.84C33299.6,5288.44 33290.6,5324.44 33283.4,5358.04C33280.4,5377.84 33279.8,5416.24 33286.4,5437.24C33295.4,5465.44 33327.2,5482.24 33354.2,5469.04ZM33346.4,5452.24C33334.4,5454.04 33327.2,5424.64 33326.6,5416.24C33325.4,5400.04 33326,5355.64 33332,5325.04C33342.2,5274.64 33361.4,5250.04 33386,5246.44C33394.4,5245.24 33398,5258.44 33398,5258.44C33378.2,5268.64 33375.2,5290.24 33377,5305.84C33378.2,5320.84 33389,5338.24 33406.4,5344.84C33411.2,5346.64 33409.4,5355.64 33407.6,5359.84C33396.8,5387.44 33386.6,5406.64 33375.8,5425.24C33369.8,5436.04 33357.8,5450.44 33346.4,5452.24ZM33418.4,5325.04C33413.6,5325.64 33405.8,5319.04 33403.4,5315.44C33396.2,5304.64 33393.8,5298.64 33396.8,5280.64C33397.4,5277.64 33401,5271.04 33408.2,5269.84C33414.2,5268.64 33420.8,5274.04 33422,5281.84C33423.2,5287.24 33423.8,5291.44 33423.8,5298.64C33423.8,5302.24 33422,5324.44 33418.4,5325.04Z" style="fill:white;fill-rule:nonzero;"/>
        </g>
        <g transform="matrix(1.14666,0,0,1.58174,-4466.25,-2903.7)">
            <path d="M33637.4,5473.84C33680.6,5496.04 33733.4,5472.04 33758.6,5458.24C33858.8,5402.44 33908,5342.44 33936.8,5334.04C33956,5328.04 33967.4,5334.04 33970.4,5344.84C33972.8,5352.64 33977.6,5362.24 33981.8,5370.64C33984.2,5376.64 33989,5380.24 33996.2,5380.24C34000.4,5380.24 34005.2,5376.64 34008.2,5371.84C34011.8,5364.04 34011.2,5355.04 34007,5346.64C34004.6,5342.44 34001.6,5338.24 33998.6,5334.64C33983,5316.64 33961.4,5315.44 33934.4,5320.84C33898.4,5328.04 33841.4,5385.04 33797.6,5411.44C33753.2,5438.44 33695.6,5463.04 33669.8,5454.04C33636.8,5435.44 33659.6,5367.64 33665,5325.64C33666.8,5307.04 33669.8,5273.44 33664.4,5262.64C33658.4,5250.64 33645.2,5238.04 33632,5241.64C33605,5249.44 33597.2,5257.84 33578,5280.64C33566,5292.64 33557,5311.24 33543.8,5322.04C33537.2,5328.64 33533.6,5326.24 33533.6,5313.64C33533.6,5289.64 33534.8,5273.44 33534.8,5246.44C33534.8,5241.04 33531.2,5231.44 33513.8,5230.24C33507.8,5229.64 33498.2,5232.04 33495.8,5245.24C33489.2,5278.24 33486.2,5310.64 33478.4,5374.84C33476,5396.44 33470,5419.24 33467,5444.44C33465.8,5457.64 33463.4,5462.44 33471.2,5472.04C33477.2,5479.84 33494.6,5481.04 33499.4,5472.64C33504.2,5466.04 33506.6,5459.44 33508.4,5451.04C33509.6,5446.24 33516.2,5418.04 33518,5414.44C33522.2,5403.04 33527.6,5385.64 33533.6,5374.84C33544.4,5356.84 33564.2,5320.24 33577.4,5304.64C33585.8,5293.84 33600.2,5278.24 33614,5267.44C33621.8,5263.84 33630.8,5266.84 33630.8,5277.64C33632,5283.04 33624.8,5316.04 33621.8,5326.24C33606.8,5382.04 33605,5406.64 33611,5436.04C33614,5451.64 33628.4,5468.44 33637.4,5473.84Z" style="fill:white;fill-rule:nonzero;"/>
        </g>
    </g>
</svg>
